<svg xmlns="http://www.w3.org/2000/svg" xmlns:xlink="http://www.w3.org/1999/xlink" width="500" zoomAndPan="magnify" viewBox="0 0 375 143.999998" height="192" preserveAspectRatio="xMidYMid meet" version="1.0"><defs><g/><clipPath id="4e33e22b0d"><path d="M 220.613281 24.941406 L 250 24.941406 L 250 53.742188 L 220.613281 53.742188 Z M 220.613281 24.941406 " clip-rule="nonzero"/></clipPath><clipPath id="f515ed7ecd"><path d="M 240 24.941406 L 269.8125 24.941406 L 269.8125 53.742188 L 240 53.742188 Z M 240 24.941406 " clip-rule="nonzero"/></clipPath></defs><g fill="#300706" fill-opacity="1"><g transform="translate(-0.0747874, 108.000809)"><g><path d="M 24.453125 1.0625 C 19.847656 1.0625 16.425781 -0.140625 14.1875 -2.546875 C 11.957031 -4.960938 10.84375 -7.90625 10.84375 -11.375 L 10.84375 -44.65625 L 1.90625 -44.65625 L 2.765625 -52.09375 L 10.84375 -52.09375 L 10.84375 -64.953125 L 20.40625 -65.90625 L 20.40625 -52.09375 L 34.125 -52.09375 L 34.125 -44.65625 L 20.40625 -44.65625 L 20.40625 -17.21875 C 20.40625 -13.601562 20.617188 -11.125 21.046875 -9.78125 C 21.472656 -8.4375 22.375 -7.566406 23.75 -7.171875 C 25.132812 -6.785156 27.671875 -6.59375 31.359375 -6.59375 L 33.8125 -6.59375 L 33.0625 1.0625 Z M 24.453125 1.0625 "/></g></g></g><g fill="#300706" fill-opacity="1"><g transform="translate(26.709771, 108.000809)"><g><path d="M 31.46875 1.0625 C 25.507812 1.0625 20.421875 -0.15625 16.203125 -2.59375 C 11.992188 -5.039062 8.789062 -8.351562 6.59375 -12.53125 C 4.394531 -16.71875 3.296875 -21.363281 3.296875 -26.46875 C 3.296875 -31.363281 4.304688 -35.847656 6.328125 -39.921875 C 8.347656 -43.992188 11.285156 -47.21875 15.140625 -49.59375 C 19.003906 -51.96875 23.5625 -53.15625 28.8125 -53.15625 C 35.46875 -53.15625 40.867188 -51.207031 45.015625 -47.3125 C 49.171875 -43.414062 51.25 -38.03125 51.25 -31.15625 C 51.25 -29.375 51.101562 -27.671875 50.8125 -26.046875 L 13.078125 -26.046875 C 13.710938 -19.316406 15.765625 -14.53125 19.234375 -11.6875 C 22.710938 -8.851562 27.179688 -7.4375 32.640625 -7.4375 C 38.097656 -7.4375 43.09375 -8.46875 47.625 -10.53125 L 48.90625 -2.984375 C 42.882812 -0.285156 37.070312 1.0625 31.46875 1.0625 Z M 41.359375 -32.640625 C 41.359375 -36.390625 40.296875 -39.328125 38.171875 -41.453125 C 36.046875 -43.585938 32.851562 -44.65625 28.59375 -44.65625 C 24.488281 -44.65625 21.265625 -43.644531 18.921875 -41.625 C 16.585938 -39.601562 14.921875 -36.609375 13.921875 -32.640625 Z M 41.359375 -32.640625 "/></g></g></g><g fill="#300706" fill-opacity="1"><g transform="translate(72.096176, 108.000809)"><g><path d="M 18.609375 1.0625 C 13.785156 1.0625 9.898438 -0.351562 6.953125 -3.1875 C 4.015625 -6.019531 2.546875 -9.632812 2.546875 -14.03125 C 2.546875 -20.625 5.664062 -25.335938 11.90625 -28.171875 C 18.144531 -31.003906 25.410156 -32.492188 33.703125 -32.640625 C 33.703125 -37.316406 32.796875 -40.488281 30.984375 -42.15625 C 29.179688 -43.820312 26.296875 -44.65625 22.328125 -44.65625 C 20.128906 -44.65625 17.929688 -44.316406 15.734375 -43.640625 C 13.535156 -42.960938 11.160156 -41.738281 8.609375 -39.96875 L 7.234375 -47.734375 C 9.359375 -49.359375 11.976562 -50.664062 15.09375 -51.65625 C 18.21875 -52.65625 21.476562 -53.15625 24.875 -53.15625 C 29.34375 -53.15625 32.90625 -52.375 35.5625 -50.8125 C 38.21875 -49.257812 40.164062 -46.675781 41.40625 -43.0625 C 42.644531 -39.445312 43.265625 -34.484375 43.265625 -28.171875 L 43.265625 -17.546875 C 43.265625 -14.710938 43.390625 -12.566406 43.640625 -11.109375 C 43.890625 -9.660156 44.4375 -8.546875 45.28125 -7.765625 C 46.132812 -6.984375 47.445312 -6.59375 49.21875 -6.59375 L 50.171875 -6.59375 L 48.6875 1.0625 L 47.953125 1.0625 C 44.972656 1.0625 42.628906 0.773438 40.921875 0.203125 C 39.222656 -0.359375 37.929688 -1.171875 37.046875 -2.234375 C 36.160156 -3.296875 35.328125 -4.75 34.546875 -6.59375 C 30.148438 -1.488281 24.835938 1.0625 18.609375 1.0625 Z M 20.40625 -6.59375 C 22.957031 -6.59375 25.421875 -7.226562 27.796875 -8.5 C 30.171875 -9.78125 32.140625 -11.484375 33.703125 -13.609375 L 33.703125 -26.046875 C 26.046875 -25.765625 20.566406 -24.753906 17.265625 -23.015625 C 13.972656 -21.273438 12.328125 -18.457031 12.328125 -14.5625 C 12.328125 -11.875 13.050781 -9.875 14.5 -8.5625 C 15.957031 -7.25 17.925781 -6.59375 20.40625 -6.59375 Z M 20.40625 -6.59375 "/></g></g></g><g fill="#300706" fill-opacity="1"><g transform="translate(114.081101, 108.000809)"><g><path d="M 67.296875 -53.15625 C 80.617188 -53.15625 87.28125 -45.675781 87.28125 -30.71875 L 87.28125 0 L 77.71875 0 L 77.71875 -30.625 C 77.71875 -35.507812 76.757812 -39.066406 74.84375 -41.296875 C 72.925781 -43.535156 69.804688 -44.65625 65.484375 -44.65625 C 56.273438 -44.65625 51.671875 -39.832031 51.671875 -30.1875 L 51.671875 0 L 42.09375 0 L 42.09375 -28.703125 C 42.09375 -34.660156 41.046875 -38.804688 38.953125 -41.140625 C 36.867188 -43.484375 33.84375 -44.65625 29.875 -44.65625 C 26.757812 -44.65625 23.992188 -44.085938 21.578125 -42.953125 C 19.171875 -41.816406 17.328125 -40.113281 16.046875 -37.84375 L 16.046875 0 L 6.484375 0 L 6.484375 -52.09375 L 13.921875 -52.09375 L 14.984375 -46.5625 C 17.609375 -48.90625 20.25 -50.585938 22.90625 -51.609375 C 25.5625 -52.640625 28.414062 -53.15625 31.46875 -53.15625 C 39.40625 -53.15625 45.003906 -49.679688 48.265625 -42.734375 C 51.878906 -49.679688 58.222656 -53.15625 67.296875 -53.15625 Z M 67.296875 -53.15625 "/></g></g></g><g fill="#300706" fill-opacity="1"><g transform="translate(198.265646, 108.000809)"><g><path d="M 21.265625 1.0625 C 17.148438 1.0625 13.550781 0.582031 10.46875 -0.375 C 7.382812 -1.332031 5.03125 -2.378906 3.40625 -3.515625 L 4.578125 -12.75 C 5.992188 -11.476562 8.171875 -10.273438 11.109375 -9.140625 C 14.046875 -8.003906 17.289062 -7.4375 20.84375 -7.4375 C 24.164062 -7.4375 26.726562 -8.003906 28.53125 -9.140625 C 30.34375 -10.273438 31.25 -11.867188 31.25 -13.921875 C 31.25 -16.335938 30.253906 -18.164062 28.265625 -19.40625 C 26.285156 -20.644531 23.8125 -21.6875 20.84375 -22.53125 C 17.582031 -23.382812 14.832031 -24.289062 12.59375 -25.25 C 10.363281 -26.207031 8.453125 -27.675781 6.859375 -29.65625 C 5.265625 -31.644531 4.46875 -34.269531 4.46875 -37.53125 C 4.46875 -41.988281 6.0625 -45.707031 9.25 -48.6875 C 12.4375 -51.664062 17.363281 -53.15625 24.03125 -53.15625 C 27.070312 -53.15625 29.65625 -52.851562 31.78125 -52.25 C 33.914062 -51.644531 36.046875 -50.8125 38.171875 -49.75 L 37 -41.03125 C 35.289062 -42.445312 33.410156 -43.5625 31.359375 -44.375 C 29.304688 -45.195312 26.929688 -45.609375 24.234375 -45.609375 C 21.117188 -45.609375 18.65625 -45.019531 16.84375 -43.84375 C 15.039062 -42.675781 14.140625 -40.925781 14.140625 -38.59375 C 14.140625 -37.03125 14.5625 -35.769531 15.40625 -34.8125 C 16.257812 -33.851562 17.46875 -33.054688 19.03125 -32.421875 C 20.59375 -31.785156 23.003906 -30.972656 26.265625 -29.984375 C 30.296875 -28.773438 33.78125 -27.070312 36.71875 -24.875 C 39.664062 -22.675781 41.140625 -19.203125 41.140625 -14.453125 C 41.140625 -10.203125 39.632812 -6.550781 36.625 -3.5 C 33.613281 -0.457031 28.492188 1.0625 21.265625 1.0625 Z M 21.265625 1.0625 "/></g></g></g><g fill="#300706" fill-opacity="1"><g transform="translate(233.23502, 108.000809)"><g><path d="M 6.484375 -52.09375 L 16.046875 -52.09375 L 16.046875 0 L 6.484375 0 Z M 6.484375 -52.09375 "/></g></g></g><g fill="#300706" fill-opacity="1"><g transform="translate(246.732541, 108.000809)"><g><path d="M 27.53125 26.578125 C 20.164062 26.578125 14.195312 25.226562 9.625 22.53125 C 5.050781 19.84375 2.765625 16.019531 2.765625 11.0625 C 2.765625 5.601562 5.773438 1.523438 11.796875 -1.171875 C 8.398438 -2.867188 6.703125 -5.066406 6.703125 -7.765625 C 6.703125 -11.160156 8.753906 -13.675781 12.859375 -15.3125 C 9.953125 -17.082031 7.71875 -19.488281 6.15625 -22.53125 C 4.601562 -25.582031 3.828125 -29.019531 3.828125 -32.84375 C 3.828125 -36.675781 4.691406 -40.132812 6.421875 -43.21875 C 8.160156 -46.300781 10.644531 -48.726562 13.875 -50.5 C 17.101562 -52.269531 20.910156 -53.15625 25.296875 -53.15625 C 29.972656 -53.15625 34.226562 -51.804688 38.0625 -49.109375 C 41.8125 -51.242188 46.132812 -52.3125 51.03125 -52.3125 L 51.875 -52.3125 L 50.71875 -45.921875 L 48.265625 -45.921875 C 47.628906 -45.921875 46.707031 -45.847656 45.5 -45.703125 C 44.289062 -45.566406 43.226562 -45.394531 42.3125 -45.1875 C 43.800781 -43.476562 44.9375 -41.5625 45.71875 -39.4375 C 46.5 -37.3125 46.890625 -35.113281 46.890625 -32.84375 C 46.890625 -28.875 46.019531 -25.3125 44.28125 -22.15625 C 42.539062 -19.007812 40.039062 -16.53125 36.78125 -14.71875 C 33.519531 -12.914062 29.691406 -12.015625 25.296875 -12.015625 C 22.742188 -12.015625 20.40625 -12.332031 18.28125 -12.96875 C 16.65625 -12.40625 15.84375 -11.484375 15.84375 -10.203125 C 15.84375 -8.503906 17.789062 -7.367188 21.6875 -6.796875 L 35.609375 -4.578125 C 41.421875 -3.648438 45.816406 -1.984375 48.796875 0.421875 C 51.773438 2.835938 53.265625 6.171875 53.265625 10.421875 C 53.265625 15.734375 50.976562 19.753906 46.40625 22.484375 C 41.832031 25.210938 35.539062 26.578125 27.53125 26.578125 Z M 25.296875 -19.671875 C 29.265625 -19.671875 32.328125 -20.859375 34.484375 -23.234375 C 36.648438 -25.609375 37.734375 -28.78125 37.734375 -32.75 C 37.734375 -36.570312 36.648438 -39.648438 34.484375 -41.984375 C 32.328125 -44.328125 29.265625 -45.5 25.296875 -45.5 C 21.328125 -45.5 18.28125 -44.328125 16.15625 -41.984375 C 14.03125 -39.648438 12.96875 -36.570312 12.96875 -32.75 C 12.96875 -28.78125 14.03125 -25.609375 16.15625 -23.234375 C 18.28125 -20.859375 21.328125 -19.671875 25.296875 -19.671875 Z M 28.390625 18.078125 C 33.273438 18.078125 37.03125 17.4375 39.65625 16.15625 C 42.28125 14.882812 43.59375 13.039062 43.59375 10.625 C 43.59375 8.78125 42.789062 7.3125 41.1875 6.21875 C 39.59375 5.125 37.203125 4.253906 34.015625 3.609375 L 19.140625 1.0625 C 17.015625 2.050781 15.273438 3.269531 13.921875 4.71875 C 12.578125 6.175781 11.90625 7.789062 11.90625 9.5625 C 11.90625 12.46875 13.359375 14.613281 16.265625 16 C 19.171875 17.382812 23.210938 18.078125 28.390625 18.078125 Z M 28.390625 18.078125 "/></g></g></g><g fill="#300706" fill-opacity="1"><g transform="translate(290.630797, 108.000809)"><g><path d="M 31.359375 -53.15625 C 37.953125 -53.15625 42.984375 -50.992188 46.453125 -46.671875 C 49.929688 -42.347656 51.671875 -36.460938 51.671875 -29.015625 L 51.671875 0 L 42.09375 0 L 42.09375 -27.859375 C 42.09375 -33.597656 41.046875 -37.832031 38.953125 -40.5625 C 36.867188 -43.289062 33.628906 -44.65625 29.234375 -44.65625 C 26.546875 -44.65625 24.066406 -44.035156 21.796875 -42.796875 C 19.523438 -41.554688 17.609375 -39.800781 16.046875 -37.53125 L 16.046875 0 L 6.375 0 L 6.375 -79.734375 L 16.046875 -79.734375 L 16.046875 -47.09375 C 18.109375 -49.082031 20.359375 -50.585938 22.796875 -51.609375 C 25.242188 -52.640625 28.097656 -53.15625 31.359375 -53.15625 Z M 31.359375 -53.15625 "/></g></g></g><g fill="#300706" fill-opacity="1"><g transform="translate(339.206091, 108.000809)"><g><path d="M 24.453125 1.0625 C 19.847656 1.0625 16.425781 -0.140625 14.1875 -2.546875 C 11.957031 -4.960938 10.84375 -7.90625 10.84375 -11.375 L 10.84375 -44.65625 L 1.90625 -44.65625 L 2.765625 -52.09375 L 10.84375 -52.09375 L 10.84375 -64.953125 L 20.40625 -65.90625 L 20.40625 -52.09375 L 34.125 -52.09375 L 34.125 -44.65625 L 20.40625 -44.65625 L 20.40625 -17.21875 C 20.40625 -13.601562 20.617188 -11.125 21.046875 -9.78125 C 21.472656 -8.4375 22.375 -7.566406 23.75 -7.171875 C 25.132812 -6.785156 27.671875 -6.59375 31.359375 -6.59375 L 33.8125 -6.59375 L 33.0625 1.0625 Z M 24.453125 1.0625 "/></g></g></g><path fill="#ffffff" d="M 248.285156 39.59375 C 248.285156 40.449219 248.203125 41.292969 248.035156 42.132812 C 247.867188 42.96875 247.621094 43.78125 247.296875 44.570312 C 246.96875 45.359375 246.570312 46.109375 246.09375 46.820312 C 245.621094 47.527344 245.082031 48.183594 244.476562 48.789062 C 243.875 49.394531 243.214844 49.933594 242.507812 50.40625 C 241.796875 50.878906 241.046875 51.28125 240.257812 51.609375 C 239.46875 51.933594 238.65625 52.179688 237.820312 52.347656 C 236.980469 52.515625 236.136719 52.597656 235.28125 52.597656 C 234.429688 52.597656 233.582031 52.515625 232.746094 52.347656 C 231.90625 52.179688 231.09375 51.933594 230.304688 51.609375 C 229.515625 51.28125 228.769531 50.878906 228.058594 50.40625 C 227.347656 49.933594 226.691406 49.394531 226.085938 48.789062 C 225.484375 48.183594 224.945312 47.527344 224.46875 46.820312 C 223.996094 46.109375 223.597656 45.359375 223.269531 44.570312 C 222.941406 43.78125 222.695312 42.96875 222.527344 42.132812 C 222.363281 41.292969 222.277344 40.449219 222.277344 39.59375 C 222.277344 38.742188 222.363281 37.894531 222.527344 37.058594 C 222.695312 36.21875 222.941406 35.40625 223.269531 34.617188 C 223.597656 33.828125 223.996094 33.082031 224.46875 32.371094 C 224.945312 31.660156 225.484375 31.003906 226.085938 30.398438 C 226.691406 29.796875 227.347656 29.257812 228.058594 28.78125 C 228.769531 28.308594 229.515625 27.90625 230.304688 27.582031 C 231.09375 27.253906 231.90625 27.007812 232.746094 26.839844 C 233.582031 26.675781 234.429688 26.589844 235.28125 26.589844 C 236.136719 26.589844 236.980469 26.675781 237.820312 26.839844 C 238.65625 27.007812 239.46875 27.253906 240.257812 27.582031 C 241.046875 27.90625 241.796875 28.308594 242.507812 28.78125 C 243.214844 29.257812 243.875 29.796875 244.476562 30.398438 C 245.082031 31.003906 245.621094 31.660156 246.09375 32.371094 C 246.570312 33.082031 246.96875 33.828125 247.296875 34.617188 C 247.621094 35.40625 247.867188 36.21875 248.035156 37.058594 C 248.203125 37.894531 248.285156 38.742188 248.285156 39.59375 Z M 248.285156 39.59375 " fill-opacity="1" fill-rule="nonzero"/><g clip-path="url(#4e33e22b0d)"><path fill="#300706" d="M 235.28125 54.253906 C 227.199219 54.253906 220.621094 47.679688 220.621094 39.59375 C 220.621094 31.511719 227.199219 24.933594 235.28125 24.933594 C 243.367188 24.933594 249.941406 31.511719 249.941406 39.59375 C 249.941406 47.679688 243.367188 54.253906 235.28125 54.253906 Z M 235.28125 28.246094 C 229.027344 28.246094 223.933594 33.335938 223.933594 39.59375 C 223.933594 45.851562 229.027344 50.941406 235.28125 50.941406 C 241.539062 50.941406 246.628906 45.851562 246.628906 39.59375 C 246.628906 33.335938 241.539062 28.246094 235.28125 28.246094 Z M 235.28125 28.246094 " fill-opacity="1" fill-rule="nonzero"/></g><path fill="#ffffff" d="M 268.222656 39.59375 C 268.222656 40.449219 268.140625 41.292969 267.972656 42.132812 C 267.804688 42.96875 267.558594 43.78125 267.230469 44.570312 C 266.90625 45.359375 266.503906 46.109375 266.03125 46.820312 C 265.554688 47.527344 265.015625 48.183594 264.414062 48.789062 C 263.808594 49.394531 263.152344 49.933594 262.441406 50.40625 C 261.734375 50.878906 260.984375 51.28125 260.195312 51.609375 C 259.40625 51.933594 258.59375 52.179688 257.753906 52.347656 C 256.917969 52.515625 256.074219 52.597656 255.21875 52.597656 C 254.363281 52.597656 253.519531 52.515625 252.683594 52.347656 C 251.84375 52.179688 251.03125 51.933594 250.242188 51.609375 C 249.453125 51.28125 248.703125 50.878906 247.996094 50.40625 C 247.285156 49.933594 246.628906 49.394531 246.023438 48.789062 C 245.421875 48.183594 244.882812 47.527344 244.40625 46.820312 C 243.933594 46.109375 243.53125 45.359375 243.207031 44.570312 C 242.878906 43.78125 242.632812 42.96875 242.464844 42.132812 C 242.300781 41.292969 242.214844 40.449219 242.214844 39.59375 C 242.214844 38.742188 242.300781 37.894531 242.464844 37.058594 C 242.632812 36.21875 242.878906 35.40625 243.207031 34.617188 C 243.53125 33.828125 243.933594 33.082031 244.40625 32.371094 C 244.882812 31.660156 245.421875 31.003906 246.023438 30.398438 C 246.628906 29.796875 247.285156 29.257812 247.996094 28.78125 C 248.703125 28.308594 249.453125 27.90625 250.242188 27.582031 C 251.03125 27.253906 251.84375 27.007812 252.683594 26.839844 C 253.519531 26.675781 254.363281 26.589844 255.21875 26.589844 C 256.074219 26.589844 256.917969 26.675781 257.753906 26.839844 C 258.59375 27.007812 259.40625 27.253906 260.195312 27.582031 C 260.984375 27.90625 261.734375 28.308594 262.441406 28.78125 C 263.152344 29.257812 263.808594 29.796875 264.414062 30.398438 C 265.015625 31.003906 265.554688 31.660156 266.03125 32.371094 C 266.503906 33.082031 266.90625 33.828125 267.230469 34.617188 C 267.558594 35.40625 267.804688 36.21875 267.972656 37.058594 C 268.140625 37.894531 268.222656 38.742188 268.222656 39.59375 Z M 268.222656 39.59375 " fill-opacity="1" fill-rule="nonzero"/><g clip-path="url(#f515ed7ecd)"><path fill="#300706" d="M 255.21875 54.253906 C 247.136719 54.253906 240.558594 47.679688 240.558594 39.59375 C 240.558594 31.511719 247.136719 24.933594 255.21875 24.933594 C 263.300781 24.933594 269.878906 31.511719 269.878906 39.59375 C 269.878906 47.679688 263.300781 54.253906 255.21875 54.253906 Z M 255.21875 28.246094 C 248.960938 28.246094 243.871094 33.335938 243.871094 39.59375 C 243.871094 45.851562 248.960938 50.941406 255.21875 50.941406 C 261.476562 50.941406 266.566406 45.851562 266.566406 39.59375 C 266.566406 33.335938 261.476562 28.246094 255.21875 28.246094 Z M 255.21875 28.246094 " fill-opacity="1" fill-rule="nonzero"/></g><path fill="#300706" d="M 255.183594 39.59375 C 255.183594 39.964844 255.148438 40.332031 255.074219 40.699219 C 255.003906 41.0625 254.894531 41.414062 254.753906 41.757812 C 254.609375 42.101562 254.4375 42.429688 254.230469 42.738281 C 254.023438 43.046875 253.789062 43.332031 253.527344 43.59375 C 253.265625 43.855469 252.980469 44.089844 252.671875 44.296875 C 252.363281 44.503906 252.035156 44.675781 251.691406 44.820312 C 251.347656 44.960938 250.996094 45.070312 250.632812 45.140625 C 250.265625 45.214844 249.898438 45.25 249.527344 45.25 C 249.15625 45.25 248.789062 45.214844 248.425781 45.140625 C 248.058594 45.070312 247.707031 44.960938 247.363281 44.820312 C 247.019531 44.675781 246.695312 44.503906 246.386719 44.296875 C 246.078125 44.089844 245.792969 43.855469 245.527344 43.59375 C 245.265625 43.332031 245.03125 43.046875 244.824219 42.738281 C 244.617188 42.429688 244.445312 42.101562 244.300781 41.757812 C 244.160156 41.414062 244.054688 41.0625 243.980469 40.699219 C 243.910156 40.332031 243.871094 39.964844 243.871094 39.59375 C 243.871094 39.222656 243.910156 38.855469 243.980469 38.492188 C 244.054688 38.128906 244.160156 37.773438 244.300781 37.429688 C 244.445312 37.085938 244.617188 36.761719 244.824219 36.453125 C 245.03125 36.144531 245.265625 35.859375 245.527344 35.59375 C 245.792969 35.332031 246.078125 35.097656 246.386719 34.890625 C 246.695312 34.6875 247.019531 34.511719 247.363281 34.371094 C 247.707031 34.226562 248.058594 34.121094 248.425781 34.046875 C 248.789062 33.976562 249.15625 33.9375 249.527344 33.9375 C 249.898438 33.9375 250.265625 33.976562 250.632812 34.046875 C 250.996094 34.121094 251.347656 34.226562 251.691406 34.371094 C 252.035156 34.511719 252.363281 34.6875 252.671875 34.890625 C 252.980469 35.097656 253.265625 35.332031 253.527344 35.59375 C 253.789062 35.859375 254.023438 36.144531 254.230469 36.453125 C 254.4375 36.761719 254.609375 37.085938 254.753906 37.429688 C 254.894531 37.773438 255.003906 38.128906 255.074219 38.492188 C 255.148438 38.855469 255.183594 39.222656 255.183594 39.59375 Z M 255.183594 39.59375 " fill-opacity="1" fill-rule="nonzero"/><path fill="#ffffff" d="M 252.863281 37.425781 C 252.863281 37.621094 252.828125 37.808594 252.753906 37.988281 C 252.679688 38.167969 252.570312 38.328125 252.433594 38.464844 C 252.296875 38.601562 252.136719 38.710938 251.957031 38.785156 C 251.777344 38.859375 251.589844 38.894531 251.394531 38.894531 C 251.199219 38.894531 251.011719 38.859375 250.832031 38.785156 C 250.652344 38.710938 250.496094 38.601562 250.355469 38.464844 C 250.21875 38.328125 250.113281 38.167969 250.039062 37.988281 C 249.964844 37.808594 249.925781 37.621094 249.925781 37.425781 C 249.925781 37.230469 249.964844 37.042969 250.039062 36.863281 C 250.113281 36.683594 250.21875 36.527344 250.355469 36.386719 C 250.496094 36.25 250.652344 36.144531 250.832031 36.070312 C 251.011719 35.996094 251.199219 35.957031 251.394531 35.957031 C 251.589844 35.957031 251.777344 35.996094 251.957031 36.070312 C 252.136719 36.144531 252.296875 36.25 252.433594 36.386719 C 252.570312 36.527344 252.679688 36.683594 252.753906 36.863281 C 252.828125 37.042969 252.863281 37.230469 252.863281 37.425781 Z M 252.863281 37.425781 " fill-opacity="1" fill-rule="nonzero"/><path fill="#300706" d="M 235.246094 39.59375 C 235.246094 39.964844 235.210938 40.332031 235.136719 40.699219 C 235.066406 41.0625 234.957031 41.414062 234.816406 41.757812 C 234.675781 42.101562 234.5 42.429688 234.292969 42.738281 C 234.085938 43.046875 233.851562 43.332031 233.589844 43.59375 C 233.328125 43.855469 233.042969 44.089844 232.734375 44.296875 C 232.425781 44.503906 232.097656 44.675781 231.753906 44.820312 C 231.414062 44.960938 231.058594 45.070312 230.695312 45.140625 C 230.332031 45.214844 229.960938 45.25 229.589844 45.25 C 229.21875 45.25 228.851562 45.214844 228.488281 45.140625 C 228.125 45.070312 227.769531 44.960938 227.425781 44.820312 C 227.082031 44.675781 226.757812 44.503906 226.449219 44.296875 C 226.140625 44.089844 225.855469 43.855469 225.59375 43.59375 C 225.328125 43.332031 225.09375 43.046875 224.886719 42.738281 C 224.683594 42.429688 224.507812 42.101562 224.367188 41.757812 C 224.222656 41.414062 224.117188 41.0625 224.042969 40.699219 C 223.972656 40.332031 223.933594 39.964844 223.933594 39.59375 C 223.933594 39.222656 223.972656 38.855469 224.042969 38.492188 C 224.117188 38.128906 224.222656 37.773438 224.367188 37.429688 C 224.507812 37.085938 224.683594 36.761719 224.886719 36.453125 C 225.09375 36.144531 225.328125 35.859375 225.59375 35.59375 C 225.855469 35.332031 226.140625 35.097656 226.449219 34.890625 C 226.757812 34.6875 227.082031 34.511719 227.425781 34.371094 C 227.769531 34.226562 228.125 34.121094 228.488281 34.046875 C 228.851562 33.976562 229.21875 33.9375 229.589844 33.9375 C 229.960938 33.9375 230.332031 33.976562 230.695312 34.046875 C 231.058594 34.121094 231.414062 34.226562 231.753906 34.371094 C 232.097656 34.511719 232.425781 34.6875 232.734375 34.890625 C 233.042969 35.097656 233.328125 35.332031 233.589844 35.59375 C 233.851562 35.859375 234.085938 36.144531 234.292969 36.453125 C 234.5 36.761719 234.675781 37.085938 234.816406 37.429688 C 234.957031 37.773438 235.066406 38.128906 235.136719 38.492188 C 235.210938 38.855469 235.246094 39.222656 235.246094 39.59375 Z M 235.246094 39.59375 " fill-opacity="1" fill-rule="nonzero"/><path fill="#ffffff" d="M 232.929688 37.425781 C 232.929688 37.621094 232.890625 37.808594 232.816406 37.988281 C 232.742188 38.167969 232.636719 38.328125 232.496094 38.464844 C 232.359375 38.601562 232.199219 38.710938 232.019531 38.785156 C 231.839844 38.859375 231.652344 38.894531 231.457031 38.894531 C 231.265625 38.894531 231.078125 38.859375 230.898438 38.785156 C 230.714844 38.710938 230.558594 38.601562 230.421875 38.464844 C 230.28125 38.328125 230.175781 38.167969 230.101562 37.988281 C 230.027344 37.808594 229.988281 37.621094 229.988281 37.425781 C 229.988281 37.230469 230.027344 37.042969 230.101562 36.863281 C 230.175781 36.683594 230.28125 36.527344 230.421875 36.386719 C 230.558594 36.25 230.714844 36.144531 230.898438 36.070312 C 231.078125 35.996094 231.265625 35.957031 231.457031 35.957031 C 231.652344 35.957031 231.839844 35.996094 232.019531 36.070312 C 232.199219 36.144531 232.359375 36.25 232.496094 36.386719 C 232.636719 36.527344 232.742188 36.683594 232.816406 36.863281 C 232.890625 37.042969 232.929688 37.230469 232.929688 37.425781 Z M 232.929688 37.425781 " fill-opacity="1" fill-rule="nonzero"/></svg>