<svg xmlns="http://www.w3.org/2000/svg" xmlns:xlink="http://www.w3.org/1999/xlink" width="500" zoomAndPan="magnify" viewBox="0 0 375 307.499996" height="410" preserveAspectRatio="xMidYMid meet" version="1.0"><defs><clipPath id="14a88df94c"><path d="M 162.789062 132.574219 L 240.492188 132.574219 L 240.492188 149.710938 L 162.789062 149.710938 Z M 162.789062 132.574219 " clip-rule="nonzero"/></clipPath><clipPath id="fcea533f1c"><path d="M 238.492188 149.679688 C 190.046875 149.679688 186.375 149.53125 181.136719 148.933594 C 175.519531 148.257812 165.5625 147.285156 163.539062 145.789062 C 162.941406 145.339844 162.789062 144.816406 162.789062 144.289062 C 162.789062 143.914062 162.863281 143.617188 163.238281 143.167969 C 164.363281 141.820312 169.003906 139.199219 172.226562 137.851562 C 175.59375 136.429688 178.738281 135.902344 183.230469 135.15625 C 190.195312 133.957031 202.550781 132.984375 209.964844 132.757812 C 215.28125 132.535156 220.894531 132.609375 223.667969 133.058594 C 224.789062 133.285156 225.613281 133.507812 226.136719 133.957031 C 226.511719 134.40625 226.8125 134.929688 226.660156 135.53125 C 226.285156 136.726562 223.890625 138.75 221.644531 139.796875 C 218.574219 141.21875 211.386719 142.71875 209.214844 141.96875 C 208.242188 141.667969 207.566406 140.695312 207.566406 140.097656 C 207.492188 139.5 207.941406 138.824219 208.765625 138.300781 C 210.9375 136.953125 218.574219 136.203125 223.589844 135.679688 C 228.683594 135.082031 236.695312 133.808594 238.867188 134.929688 C 239.765625 135.304688 240.214844 136.054688 240.214844 136.652344 C 240.214844 137.25 239.390625 138.300781 238.867188 138.375 C 238.265625 138.523438 236.769531 137.625 236.621094 137.027344 C 236.46875 136.429688 237.519531 135.003906 238.117188 134.855469 C 238.640625 134.707031 239.839844 135.378906 240.066406 135.902344 C 240.289062 136.503906 239.914062 137.699219 239.015625 138.300781 C 236.996094 139.796875 229.132812 138.675781 224.191406 139.199219 C 219.097656 139.796875 211.011719 142.792969 208.765625 141.894531 C 207.941406 141.519531 207.566406 140.695312 207.566406 140.097656 C 207.566406 139.5 208.015625 138.824219 208.765625 138.300781 C 210.5625 137.175781 217.078125 137.625 219.996094 136.503906 C 222.09375 135.753906 223.816406 133.359375 224.9375 133.433594 C 225.761719 133.582031 226.660156 134.554688 226.660156 135.15625 C 226.734375 135.679688 226.136719 136.578125 225.238281 137.027344 C 222.917969 138.074219 215.878906 136.054688 210.1875 136.128906 C 202.699219 136.277344 190.792969 137.402344 184.054688 138.523438 C 179.789062 139.199219 176.71875 140.097656 173.648438 141.070312 C 171.101562 141.894531 168.40625 142.792969 166.757812 143.839844 C 165.710938 144.515625 164.960938 146.011719 164.363281 146.164062 C 164.0625 146.164062 163.761719 146.011719 163.539062 145.789062 C 163.238281 145.488281 162.714844 144.441406 162.863281 143.914062 C 163.015625 143.390625 163.539062 142.792969 164.4375 142.566406 C 166.984375 141.894531 175.894531 144.816406 181.359375 145.414062 C 186.527344 146.011719 190.121094 146.164062 196.335938 146.3125 C 206.820312 146.613281 233.625 143.992188 238.492188 145.789062 C 239.691406 146.238281 240.214844 146.910156 240.4375 147.511719 C 240.515625 147.960938 240.363281 148.484375 240.066406 148.859375 C 239.765625 149.230469 238.492188 149.679688 238.492188 149.679688 " clip-rule="nonzero"/></clipPath><clipPath id="13ae0878f7"><path d="M 0.304688 0 L 374.695312 0 L 374.695312 306.253906 L 0.304688 306.253906 Z M 0.304688 0 " clip-rule="nonzero"/></clipPath></defs><g clip-path="url(#14a88df94c)"><g clip-path="url(#fcea533f1c)"><path fill="#e7191f" d="M 159.796875 129.765625 L 243.394531 129.765625 L 243.394531 152.976562 L 159.796875 152.976562 Z M 159.796875 129.765625 " fill-opacity="1" fill-rule="nonzero"/></g></g><g clip-path="url(#13ae0878f7)"><path fill="#fe65b7" d="M 340.53125 68.140625 L 340.53125 34.070312 L 306.484375 34.070312 L 306.484375 0 L 238.574219 0 L 238.574219 34.070312 L 204.523438 34.070312 L 204.523438 68.140625 L 170.476562 68.140625 L 170.476562 34.070312 L 136.425781 34.070312 L 136.425781 0 L 68.515625 0 L 68.515625 34.070312 L 34.46875 34.070312 L 34.46875 68.140625 L 0.417969 68.140625 L 0.417969 170.160156 L 34.46875 170.160156 L 34.46875 204.230469 L 68.515625 204.230469 L 68.515625 238.300781 L 136.425781 238.300781 L 136.425781 272.371094 L 170.476562 272.371094 L 170.476562 306.253906 L 204.523438 306.253906 L 204.523438 272.371094 L 238.574219 272.371094 L 238.574219 238.300781 L 306.484375 238.300781 L 306.484375 204.230469 L 340.53125 204.230469 L 340.53125 170.160156 L 374.582031 170.160156 L 374.582031 68.140625 Z M 340.53125 68.140625 " fill-opacity="1" fill-rule="nonzero"/></g><path fill="#feabd6" d="M 340.53125 68.140625 L 340.53125 170.160156 L 306.484375 170.160156 L 306.484375 204.230469 L 238.574219 204.230469 L 238.574219 238.300781 L 204.523438 238.300781 L 204.523438 272.371094 L 170.476562 272.371094 L 170.476562 238.300781 L 136.425781 238.300781 L 136.425781 204.230469 L 68.515625 204.230469 L 68.515625 170.160156 L 34.46875 170.160156 L 34.46875 68.140625 L 68.515625 68.140625 L 68.515625 34.070312 L 136.425781 34.070312 L 136.425781 68.140625 L 170.476562 68.140625 L 170.476562 102.023438 L 204.523438 102.023438 L 204.523438 68.140625 L 238.574219 68.140625 L 238.574219 34.070312 L 306.484375 34.070312 L 306.484375 68.140625 Z M 340.53125 68.140625 " fill-opacity="1" fill-rule="nonzero"/><path fill="#ffffff" d="M 102.378906 68.140625 L 102.378906 102.023438 L 68.515625 102.023438 L 68.515625 136.089844 L 136.425781 136.089844 L 136.425781 68.140625 Z M 102.378906 68.140625 " fill-opacity="1" fill-rule="nonzero"/></svg>