<svg xmlns="http://www.w3.org/2000/svg" xmlns:xlink="http://www.w3.org/1999/xlink" width="500" zoomAndPan="magnify" viewBox="0 0 375 177.000001" height="236" preserveAspectRatio="xMidYMid meet" version="1.0"><defs><clipPath id="81dba046f5"><path d="M 270.523438 43 L 328.4375 43 L 328.4375 74.785156 L 270.523438 74.785156 Z M 270.523438 43 " clip-rule="nonzero"/></clipPath><clipPath id="22e5d5958f"><path d="M 327.484375 45.046875 C 309.4375 47.507812 307.199219 48.253906 303.695312 49.371094 C 298.921875 50.863281 292.132812 53.101562 287.0625 55.488281 C 282.4375 57.722656 276.546875 60.78125 274.308594 63.019531 C 273.191406 64.136719 272.070312 65.332031 272.445312 66.152344 C 273.191406 67.71875 281.992188 67.121094 285.125 68.6875 C 287.433594 69.804688 290.121094 71.96875 290.417969 73.160156 C 290.492188 73.683594 290.046875 74.652344 289.671875 74.652344 C 289.375 74.726562 288.480469 73.757812 288.554688 73.460938 C 288.554688 73.160156 289.820312 72.640625 290.121094 72.789062 C 290.34375 72.9375 290.566406 73.980469 290.34375 74.28125 C 290.195312 74.578125 289.671875 74.726562 289.152344 74.652344 C 287.882812 74.355469 285.71875 71.074219 283.257812 69.953125 C 280.125 68.539062 273.117188 68.613281 271.550781 67.644531 C 271.027344 67.34375 270.878906 67.121094 270.730469 66.671875 C 270.582031 66.152344 270.730469 65.40625 271.027344 64.734375 C 271.476562 63.765625 272.070312 62.796875 273.265625 61.675781 C 275.726562 59.515625 281.691406 56.15625 286.464844 53.921875 C 291.613281 51.460938 297.503906 49.371094 303.246094 47.65625 C 308.914062 45.941406 316.074219 44.375 320.546875 43.703125 C 323.382812 43.253906 326.441406 42.734375 327.558594 43.253906 C 328.082031 43.40625 328.378906 43.851562 328.378906 44.152344 C 328.304688 44.523438 327.484375 45.046875 327.484375 45.046875 " clip-rule="nonzero"/></clipPath><clipPath id="177147e4b6"><path d="M 1.054688 0 L 373.945312 0 L 373.945312 176 L 1.054688 176 Z M 1.054688 0 " clip-rule="nonzero"/></clipPath></defs><g clip-path="url(#81dba046f5)"><g clip-path="url(#22e5d5958f)"><path fill="#e7191f" d="M 267.746094 40.273438 L 331.363281 40.273438 L 331.363281 77.710938 L 267.746094 77.710938 Z M 267.746094 40.273438 " fill-opacity="1" fill-rule="nonzero"/></g></g><g clip-path="url(#177147e4b6)"><path fill="#ffffff" d="M 1.054688 175.652344 L 67.703125 118.761719 L 104.292969 143.816406 L 184.792969 57.558594 L 222.195312 105.75 L 301.066406 33.382812 L 275.714844 6.730469 L 373.882812 0.046875 L 357.566406 93.515625 L 332.777344 65.910156 L 222.195312 147.21875 L 184.792969 105.75 L 104.292969 175.679688 L 67.703125 147.21875 Z M 1.054688 175.652344 " fill-opacity="1" fill-rule="evenodd"/></g></svg>