<svg xmlns="http://www.w3.org/2000/svg" xmlns:xlink="http://www.w3.org/1999/xlink" width="500" zoomAndPan="magnify" viewBox="0 0 375 119.999999" height="160" preserveAspectRatio="xMidYMid meet" version="1.0"><defs><g/></defs><g fill="#ffffff" fill-opacity="1"><g transform="translate(6.666669, 86.946102)"><g><path d="M 24.34375 -46.078125 L 30.28125 -46.984375 C 31.21875 -46.984375 31.71875 -46.742188 31.78125 -46.265625 C 31.78125 -44.992188 30.585938 -43.851562 28.203125 -42.84375 C 25.828125 -41.84375 22.796875 -41.34375 19.109375 -41.34375 C 15.421875 -41.34375 12.367188 -42.226562 9.953125 -44 C 7.546875 -45.78125 6.34375 -48.25 6.34375 -51.40625 C 6.34375 -54.15625 8.851562 -57.742188 13.875 -62.171875 C 16.5 -64.453125 19.601562 -66.597656 23.1875 -68.609375 C 26.769531 -70.617188 31.328125 -72.3125 36.859375 -73.6875 C 42.398438 -75.0625 47.984375 -75.75 53.609375 -75.75 C 59.242188 -75.75 63.921875 -75.09375 67.640625 -73.78125 C 71.367188 -72.476562 74.140625 -70.851562 75.953125 -68.90625 C 79.367188 -65.21875 81.078125 -61.929688 81.078125 -59.046875 C 81.078125 -57.441406 80.65625 -55.882812 79.8125 -54.375 C 78.976562 -52.863281 77.789062 -51.640625 76.25 -50.703125 C 64.113281 -43.722656 55.0625 -39.296875 49.09375 -37.421875 C 48.019531 -36.953125 47.484375 -36.550781 47.484375 -36.21875 C 47.484375 -36.082031 47.953125 -35.945312 48.890625 -35.8125 C 54.117188 -35.8125 59.082031 -34.875 63.78125 -33 C 66.394531 -31.925781 68.503906 -30.316406 70.109375 -28.171875 C 71.722656 -26.023438 72.53125 -23.253906 72.53125 -19.859375 C 72.53125 -16.472656 71.171875 -13.203125 68.453125 -10.046875 C 65.734375 -6.898438 62.34375 -4.320312 58.28125 -2.3125 C 54.226562 -0.300781 49.753906 1.40625 44.859375 2.8125 C 35.804688 5.289062 27.523438 6.53125 20.015625 6.53125 C 15.992188 6.53125 12.140625 6.03125 8.453125 5.03125 C 1.273438 3.082031 -2.3125 0.195312 -2.3125 -3.625 C -2.3125 -5.96875 -1.320312 -8.257812 0.65625 -10.5 C 2.632812 -12.75 4.492188 -13.941406 6.234375 -14.078125 C 6.304688 -14.078125 6.910156 -13.945312 8.046875 -13.6875 C 11.203125 -12.945312 15.191406 -12.578125 20.015625 -12.578125 C 24.847656 -12.578125 30.53125 -13.445312 37.0625 -15.1875 C 43.601562 -16.9375 49.15625 -19.035156 53.71875 -21.484375 C 58.28125 -23.929688 60.5625 -26.160156 60.5625 -28.171875 C 60.5625 -30.578125 55.765625 -31.78125 46.171875 -31.78125 C 42.546875 -31.78125 39.726562 -31.582031 37.71875 -31.1875 C 37.25 -31.113281 34.984375 -28.726562 30.921875 -24.03125 C 26.867188 -19.34375 24.304688 -16.328125 23.234375 -14.984375 C 22.097656 -13.984375 21.039062 -13.484375 20.0625 -13.484375 C 19.09375 -13.484375 18.40625 -13.679688 18 -14.078125 C 17.601562 -14.484375 17.40625 -14.851562 17.40625 -15.1875 C 17.40625 -15.519531 17.535156 -15.921875 17.796875 -16.390625 C 18.066406 -16.859375 18.972656 -18.132812 20.515625 -20.21875 C 24.742188 -25.914062 26.859375 -28.945312 26.859375 -29.3125 C 26.859375 -29.6875 26.570312 -30.328125 26 -31.234375 C 25.4375 -32.140625 25.15625 -32.925781 25.15625 -33.59375 C 25.15625 -34.269531 25.671875 -34.804688 26.703125 -35.203125 C 27.742188 -35.609375 29.019531 -35.992188 30.53125 -36.359375 C 32.039062 -36.734375 33.007812 -37.035156 33.4375 -37.265625 C 33.875 -37.503906 35.648438 -39.535156 38.765625 -43.359375 C 41.890625 -47.179688 43.703125 -49.328125 44.203125 -49.796875 C 44.710938 -50.265625 45.4375 -50.5 46.375 -50.5 C 47.976562 -50.5 48.78125 -49.863281 48.78125 -48.59375 C 48.78125 -47.851562 48.125 -46.578125 46.8125 -44.765625 C 45.507812 -42.953125 44.859375 -41.925781 44.859375 -41.6875 C 44.859375 -41.457031 44.894531 -41.3125 44.96875 -41.25 C 46.707031 -41.25 50.828125 -42.921875 57.328125 -46.265625 C 63.835938 -49.617188 67.929688 -51.96875 69.609375 -53.3125 C 70.273438 -53.582031 70.609375 -54.019531 70.609375 -54.625 C 70.609375 -55.96875 68.566406 -56.640625 64.484375 -56.640625 C 58.242188 -56.640625 51.785156 -55.898438 45.109375 -54.421875 C 38.441406 -52.941406 33.175781 -51.414062 29.3125 -49.84375 C 25.457031 -48.269531 23.53125 -47.113281 23.53125 -46.375 C 23.53125 -46.175781 23.800781 -46.078125 24.34375 -46.078125 Z M 24.34375 -46.078125 "/></g></g><g transform="translate(74.671453, 86.946102)"><g><path d="M 23.03125 -19.515625 L 27.96875 -20.015625 C 30.25 -20.015625 31.390625 -18.875 31.390625 -16.59375 C 31.390625 -15.382812 30.28125 -14.039062 28.0625 -12.5625 C 25.851562 -11.09375 23.625 -9.738281 21.375 -8.5 C 19.125 -7.257812 18 -6.304688 18 -5.640625 C 18 -5.160156 18.535156 -4.859375 19.609375 -4.734375 C 21.960938 -4.734375 26.425781 -6.609375 33 -10.359375 C 39.570312 -14.117188 43.09375 -16 43.5625 -16 C 44.5 -16 44.96875 -15.53125 44.96875 -14.59375 C 44.894531 -13.914062 42.765625 -12.253906 38.578125 -9.609375 C 34.390625 -6.960938 29.492188 -4.414062 23.890625 -1.96875 C 18.285156 0.476562 14.007812 1.703125 11.0625 1.703125 C 6.4375 1.703125 4.125 -0.742188 4.125 -5.640625 C 4.125 -7.046875 5.078125 -8.585938 6.984375 -10.265625 C 8.898438 -11.941406 10.8125 -13.378906 12.71875 -14.578125 C 14.632812 -15.785156 15.59375 -16.539062 15.59375 -16.84375 C 15.59375 -17.144531 15.125 -17.5 14.1875 -17.90625 C 11.363281 -19.113281 9.953125 -20.722656 9.953125 -22.734375 C 9.953125 -26.492188 13.085938 -30.066406 19.359375 -33.453125 C 25.628906 -36.835938 31.445312 -38.53125 36.8125 -38.53125 C 39.769531 -38.53125 42.21875 -37.972656 44.15625 -36.859375 C 46.101562 -35.753906 47.078125 -34.078125 47.078125 -31.828125 C 47.078125 -29.585938 45.515625 -27.492188 42.390625 -25.546875 C 39.273438 -23.609375 37.046875 -22.640625 35.703125 -22.640625 C 35.171875 -22.640625 34.6875 -22.769531 34.25 -23.03125 C 33.8125 -23.300781 33.59375 -23.601562 33.59375 -23.9375 C 33.59375 -24.269531 34.515625 -24.820312 36.359375 -25.59375 C 38.203125 -26.375 39.125 -27.097656 39.125 -27.765625 C 39.125 -28.097656 38.640625 -28.265625 37.671875 -28.265625 C 36.703125 -28.265625 33.535156 -27.207031 28.171875 -25.09375 C 22.804688 -22.976562 20.125 -21.488281 20.125 -20.625 C 20.125 -19.882812 21.09375 -19.515625 23.03125 -19.515625 Z M 23.03125 -19.515625 "/></g></g></g><g fill="#ffffff" fill-opacity="1"><g transform="translate(110.685834, 86.946102)"><g><path d="M 23.03125 -19.515625 L 27.96875 -20.015625 C 30.25 -20.015625 31.390625 -18.875 31.390625 -16.59375 C 31.390625 -15.382812 30.28125 -14.039062 28.0625 -12.5625 C 25.851562 -11.09375 23.625 -9.738281 21.375 -8.5 C 19.125 -7.257812 18 -6.304688 18 -5.640625 C 18 -5.160156 18.535156 -4.859375 19.609375 -4.734375 C 21.960938 -4.734375 26.425781 -6.609375 33 -10.359375 C 39.570312 -14.117188 43.09375 -16 43.5625 -16 C 44.5 -16 44.96875 -15.53125 44.96875 -14.59375 C 44.894531 -13.914062 42.765625 -12.253906 38.578125 -9.609375 C 34.390625 -6.960938 29.492188 -4.414062 23.890625 -1.96875 C 18.285156 0.476562 14.007812 1.703125 11.0625 1.703125 C 6.4375 1.703125 4.125 -0.742188 4.125 -5.640625 C 4.125 -7.046875 5.078125 -8.585938 6.984375 -10.265625 C 8.898438 -11.941406 10.8125 -13.378906 12.71875 -14.578125 C 14.632812 -15.785156 15.59375 -16.539062 15.59375 -16.84375 C 15.59375 -17.144531 15.125 -17.5 14.1875 -17.90625 C 11.363281 -19.113281 9.953125 -20.722656 9.953125 -22.734375 C 9.953125 -26.492188 13.085938 -30.066406 19.359375 -33.453125 C 25.628906 -36.835938 31.445312 -38.53125 36.8125 -38.53125 C 39.769531 -38.53125 42.21875 -37.972656 44.15625 -36.859375 C 46.101562 -35.753906 47.078125 -34.078125 47.078125 -31.828125 C 47.078125 -29.585938 45.515625 -27.492188 42.390625 -25.546875 C 39.273438 -23.609375 37.046875 -22.640625 35.703125 -22.640625 C 35.171875 -22.640625 34.6875 -22.769531 34.25 -23.03125 C 33.8125 -23.300781 33.59375 -23.601562 33.59375 -23.9375 C 33.59375 -24.269531 34.515625 -24.820312 36.359375 -25.59375 C 38.203125 -26.375 39.125 -27.097656 39.125 -27.765625 C 39.125 -28.097656 38.640625 -28.265625 37.671875 -28.265625 C 36.703125 -28.265625 33.535156 -27.207031 28.171875 -25.09375 C 22.804688 -22.976562 20.125 -21.488281 20.125 -20.625 C 20.125 -19.882812 21.09375 -19.515625 23.03125 -19.515625 Z M 23.03125 -19.515625 "/></g></g></g><g fill="#ffffff" fill-opacity="1"><g transform="translate(146.70021, 86.946102)"><g><path d="M 41.140625 -4.53125 L 44.265625 -5.734375 C 45.203125 -5.734375 45.671875 -5.363281 45.671875 -4.625 C 45.671875 -2.882812 44.242188 -1.226562 41.390625 0.34375 C 38.546875 1.925781 35.832031 2.71875 33.25 2.71875 C 30.664062 2.71875 28.671875 2.160156 27.265625 1.046875 C 25.859375 -0.0546875 25.15625 -1.742188 25.15625 -4.015625 C 25.15625 -6.296875 26.460938 -9.113281 29.078125 -12.46875 C 29.410156 -12.8125 29.578125 -13.097656 29.578125 -13.328125 C 29.578125 -13.566406 29.441406 -13.6875 29.171875 -13.6875 C 28.898438 -13.6875 28.664062 -13.617188 28.46875 -13.484375 C 28.269531 -13.347656 26.828125 -12.441406 24.140625 -10.765625 C 17.703125 -6.671875 13.109375 -3.820312 10.359375 -2.21875 C 9.222656 -1.613281 8.148438 -1.3125 7.140625 -1.3125 C 6.140625 -1.3125 5.035156 -1.945312 3.828125 -3.21875 C 2.617188 -4.488281 2.015625 -5.765625 2.015625 -7.046875 C 2.015625 -9.722656 5.800781 -14.628906 13.375 -21.765625 C 20.957031 -28.910156 26.085938 -32.484375 28.765625 -32.484375 C 29.773438 -32.359375 30.644531 -31.789062 31.375 -30.78125 C 32.113281 -29.769531 32.484375 -28.578125 32.484375 -27.203125 C 32.484375 -25.835938 31.984375 -24.347656 30.984375 -22.734375 C 29.503906 -20.390625 28.3125 -18.765625 27.40625 -17.859375 C 26.5 -16.953125 26.046875 -16.378906 26.046875 -16.140625 C 26.046875 -15.910156 26.144531 -15.796875 26.34375 -15.796875 C 26.550781 -15.796875 26.835938 -15.910156 27.203125 -16.140625 C 27.578125 -16.378906 30.765625 -18.457031 36.765625 -22.375 C 42.765625 -26.300781 46.132812 -28.484375 46.875 -28.921875 C 47.613281 -29.359375 48.414062 -29.578125 49.28125 -29.578125 C 50.15625 -29.578125 51.296875 -29.15625 52.703125 -28.3125 C 54.117188 -27.476562 54.828125 -26.351562 54.828125 -24.9375 C 54.828125 -23.53125 53.601562 -21.453125 51.15625 -18.703125 C 48.707031 -15.960938 46.238281 -13.316406 43.75 -10.765625 C 41.269531 -8.210938 40.03125 -6.398438 40.03125 -5.328125 C 40.03125 -4.796875 40.398438 -4.53125 41.140625 -4.53125 Z M 41.140625 -4.53125 "/></g></g></g><g fill="#ffffff" fill-opacity="1"><g transform="translate(192.573251, 86.946102)"><g><path d="M 35.90625 -23.9375 C 22.632812 -5.695312 14.117188 3.421875 10.359375 3.421875 C 8.679688 3.421875 7.207031 2.550781 5.9375 0.8125 C 3.65625 -2.414062 2.515625 -6.175781 2.515625 -10.46875 C 2.515625 -14.757812 6.035156 -21.53125 13.078125 -30.78125 C 20.117188 -40.03125 27.613281 -48.359375 35.5625 -55.765625 C 43.507812 -63.179688 48.859375 -66.890625 51.609375 -66.890625 C 53.210938 -66.890625 54.550781 -65.984375 55.625 -64.171875 C 56.695312 -62.367188 57.234375 -60.863281 57.234375 -59.65625 C 57.234375 -58.445312 56.894531 -57.085938 56.21875 -55.578125 C 55.550781 -54.066406 54.363281 -51.898438 52.65625 -49.078125 C 50.945312 -46.265625 49.40625 -43.816406 48.03125 -41.734375 C 46.65625 -39.660156 44.523438 -36.410156 41.640625 -31.984375 C 49.023438 -33.523438 54.222656 -34.53125 57.234375 -35 C 64.410156 -43.1875 69.289062 -48.65625 71.875 -51.40625 C 74.457031 -54.15625 77.289062 -57.070312 80.375 -60.15625 C 86.476562 -66.1875 91.101562 -69.203125 94.25 -69.203125 C 94.851562 -69.203125 95.335938 -69 95.703125 -68.59375 C 96.078125 -68.195312 96.300781 -67.597656 96.375 -66.796875 C 95.769531 -64.109375 94.695312 -61.625 93.15625 -59.34375 C 91.613281 -57.070312 88.910156 -53.601562 85.046875 -48.9375 C 81.191406 -44.28125 77.722656 -39.835938 74.640625 -35.609375 C 79.597656 -33.867188 82.078125 -31.859375 82.078125 -29.578125 C 82.078125 -28.703125 81.757812 -27.992188 81.125 -27.453125 C 80.488281 -26.921875 79.75 -26.640625 78.90625 -26.609375 C 78.070312 -26.578125 76.3125 -26.507812 73.625 -26.40625 C 70.945312 -26.300781 68.671875 -26.179688 66.796875 -26.046875 C 65.992188 -25.984375 64.113281 -23.820312 61.15625 -19.5625 C 58.207031 -15.300781 55.039062 -11.039062 51.65625 -6.78125 C 48.269531 -2.53125 45.617188 -0.40625 43.703125 -0.40625 C 41.796875 -0.40625 40.1875 -2.363281 38.875 -6.28125 C 37.570312 -10.207031 36.753906 -14.148438 36.421875 -18.109375 Z M 40.140625 -21.734375 L 41.4375 -14.59375 C 42.914062 -17.132812 45.164062 -20.316406 48.1875 -24.140625 C 48.050781 -24.140625 47.726562 -24.101562 47.21875 -24.03125 C 46.71875 -23.96875 46.265625 -23.921875 45.859375 -23.890625 C 45.460938 -23.859375 44.960938 -23.789062 44.359375 -23.6875 C 43.753906 -23.582031 43.234375 -23.476562 42.796875 -23.375 C 42.367188 -23.28125 41.914062 -23.132812 41.4375 -22.9375 C 40.570312 -22.601562 40.140625 -22.203125 40.140625 -21.734375 Z M 40.140625 -21.734375 "/></g></g></g><g fill="#ffffff" fill-opacity="1"><g transform="translate(258.465448, 86.946102)"><g><path d="M 23.03125 -19.515625 L 27.96875 -20.015625 C 30.25 -20.015625 31.390625 -18.875 31.390625 -16.59375 C 31.390625 -15.382812 30.28125 -14.039062 28.0625 -12.5625 C 25.851562 -11.09375 23.625 -9.738281 21.375 -8.5 C 19.125 -7.257812 18 -6.304688 18 -5.640625 C 18 -5.160156 18.535156 -4.859375 19.609375 -4.734375 C 21.960938 -4.734375 26.425781 -6.609375 33 -10.359375 C 39.570312 -14.117188 43.09375 -16 43.5625 -16 C 44.5 -16 44.96875 -15.53125 44.96875 -14.59375 C 44.894531 -13.914062 42.765625 -12.253906 38.578125 -9.609375 C 34.390625 -6.960938 29.492188 -4.414062 23.890625 -1.96875 C 18.285156 0.476562 14.007812 1.703125 11.0625 1.703125 C 6.4375 1.703125 4.125 -0.742188 4.125 -5.640625 C 4.125 -7.046875 5.078125 -8.585938 6.984375 -10.265625 C 8.898438 -11.941406 10.8125 -13.378906 12.71875 -14.578125 C 14.632812 -15.785156 15.59375 -16.539062 15.59375 -16.84375 C 15.59375 -17.144531 15.125 -17.5 14.1875 -17.90625 C 11.363281 -19.113281 9.953125 -20.722656 9.953125 -22.734375 C 9.953125 -26.492188 13.085938 -30.066406 19.359375 -33.453125 C 25.628906 -36.835938 31.445312 -38.53125 36.8125 -38.53125 C 39.769531 -38.53125 42.21875 -37.972656 44.15625 -36.859375 C 46.101562 -35.753906 47.078125 -34.078125 47.078125 -31.828125 C 47.078125 -29.585938 45.515625 -27.492188 42.390625 -25.546875 C 39.273438 -23.609375 37.046875 -22.640625 35.703125 -22.640625 C 35.171875 -22.640625 34.6875 -22.769531 34.25 -23.03125 C 33.8125 -23.300781 33.59375 -23.601562 33.59375 -23.9375 C 33.59375 -24.269531 34.515625 -24.820312 36.359375 -25.59375 C 38.203125 -26.375 39.125 -27.097656 39.125 -27.765625 C 39.125 -28.097656 38.640625 -28.265625 37.671875 -28.265625 C 36.703125 -28.265625 33.535156 -27.207031 28.171875 -25.09375 C 22.804688 -22.976562 20.125 -21.488281 20.125 -20.625 C 20.125 -19.882812 21.09375 -19.515625 23.03125 -19.515625 Z M 23.03125 -19.515625 "/></g></g></g><g fill="#ffffff" fill-opacity="1"><g transform="translate(294.479823, 86.946102)"><g><path d="M 24.34375 -37.515625 C 24.8125 -37.515625 25.242188 -37.296875 25.640625 -36.859375 C 26.046875 -36.429688 26.25 -35.929688 26.25 -35.359375 C 26.25 -34.785156 25.914062 -34.066406 25.25 -33.203125 C 22.632812 -29.984375 20.90625 -27.953125 20.0625 -27.109375 C 19.226562 -26.273438 18.8125 -25.722656 18.8125 -25.453125 C 18.8125 -25.179688 19.03125 -25.046875 19.46875 -25.046875 C 19.90625 -25.046875 21.695312 -25.628906 24.84375 -26.796875 C 28 -27.972656 30.078125 -28.5625 31.078125 -28.5625 C 32.085938 -28.5625 33.128906 -28.140625 34.203125 -27.296875 C 35.273438 -26.460938 35.8125 -25.390625 35.8125 -24.078125 C 35.8125 -22.773438 33.765625 -19.789062 29.671875 -15.125 C 25.578125 -10.46875 23.53125 -7.4375 23.53125 -6.03125 C 23.53125 -5.769531 23.632812 -5.640625 23.84375 -5.640625 C 24.175781 -5.640625 24.773438 -5.851562 25.640625 -6.28125 C 26.515625 -6.71875 27.054688 -6.9375 27.265625 -6.9375 C 28.003906 -6.9375 28.375 -6.671875 28.375 -6.140625 C 28.375 -4.054688 26.726562 -1.976562 23.4375 0.09375 C 20.15625 2.175781 17.390625 3.21875 15.140625 3.21875 C 12.890625 3.21875 11.0625 2.597656 9.65625 1.359375 C 8.25 0.117188 7.546875 -1.535156 7.546875 -3.609375 C 7.546875 -5.691406 8.566406 -8.023438 10.609375 -10.609375 C 12.660156 -13.191406 14.773438 -15.019531 16.953125 -16.09375 C 19.128906 -17.164062 20.21875 -18.035156 20.21875 -18.703125 C 20.21875 -18.910156 20.1875 -19.046875 20.125 -19.109375 C 17.164062 -17.898438 14.75 -17.296875 12.875 -17.296875 C 9.1875 -17.296875 7.34375 -18.367188 7.34375 -20.515625 C 7.34375 -23.003906 9.488281 -26.257812 13.78125 -30.28125 C 18.070312 -34.300781 21.59375 -36.710938 24.34375 -37.515625 Z M 24.34375 -37.515625 "/></g></g></g><g fill="#ffffff" fill-opacity="1"><g transform="translate(324.156475, 86.946102)"><g><path d="M 23.03125 -19.515625 L 27.96875 -20.015625 C 30.25 -20.015625 31.390625 -18.875 31.390625 -16.59375 C 31.390625 -15.382812 30.28125 -14.039062 28.0625 -12.5625 C 25.851562 -11.09375 23.625 -9.738281 21.375 -8.5 C 19.125 -7.257812 18 -6.304688 18 -5.640625 C 18 -5.160156 18.535156 -4.859375 19.609375 -4.734375 C 21.960938 -4.734375 26.425781 -6.609375 33 -10.359375 C 39.570312 -14.117188 43.09375 -16 43.5625 -16 C 44.5 -16 44.96875 -15.53125 44.96875 -14.59375 C 44.894531 -13.914062 42.765625 -12.253906 38.578125 -9.609375 C 34.390625 -6.960938 29.492188 -4.414062 23.890625 -1.96875 C 18.285156 0.476562 14.007812 1.703125 11.0625 1.703125 C 6.4375 1.703125 4.125 -0.742188 4.125 -5.640625 C 4.125 -7.046875 5.078125 -8.585938 6.984375 -10.265625 C 8.898438 -11.941406 10.8125 -13.378906 12.71875 -14.578125 C 14.632812 -15.785156 15.59375 -16.539062 15.59375 -16.84375 C 15.59375 -17.144531 15.125 -17.5 14.1875 -17.90625 C 11.363281 -19.113281 9.953125 -20.722656 9.953125 -22.734375 C 9.953125 -26.492188 13.085938 -30.066406 19.359375 -33.453125 C 25.628906 -36.835938 31.445312 -38.53125 36.8125 -38.53125 C 39.769531 -38.53125 42.21875 -37.972656 44.15625 -36.859375 C 46.101562 -35.753906 47.078125 -34.078125 47.078125 -31.828125 C 47.078125 -29.585938 45.515625 -27.492188 42.390625 -25.546875 C 39.273438 -23.609375 37.046875 -22.640625 35.703125 -22.640625 C 35.171875 -22.640625 34.6875 -22.769531 34.25 -23.03125 C 33.8125 -23.300781 33.59375 -23.601562 33.59375 -23.9375 C 33.59375 -24.269531 34.515625 -24.820312 36.359375 -25.59375 C 38.203125 -26.375 39.125 -27.097656 39.125 -27.765625 C 39.125 -28.097656 38.640625 -28.265625 37.671875 -28.265625 C 36.703125 -28.265625 33.535156 -27.207031 28.171875 -25.09375 C 22.804688 -22.976562 20.125 -21.488281 20.125 -20.625 C 20.125 -19.882812 21.09375 -19.515625 23.03125 -19.515625 Z M 23.03125 -19.515625 "/></g></g></g></svg>