<svg xmlns="http://www.w3.org/2000/svg" xmlns:xlink="http://www.w3.org/1999/xlink" width="500" zoomAndPan="magnify" viewBox="0 0 375 143.999998" height="192" preserveAspectRatio="xMidYMid meet" version="1.0"><defs><g/></defs><g fill="#ffffff" fill-opacity="1"><g transform="translate(6.522604, 119.685376)"><g><path d="M 28.234375 0.96875 C 23.109375 0.96875 18.625 0.00390625 14.78125 -1.921875 C 10.9375 -3.847656 7.953125 -6.507812 5.828125 -9.90625 C 3.703125 -13.3125 2.640625 -17.21875 2.640625 -21.625 L 2.640625 -25.359375 C 2.640625 -25.921875 2.800781 -26.359375 3.125 -26.671875 C 3.445312 -26.992188 3.890625 -27.15625 4.453125 -27.15625 L 23.1875 -27.15625 C 23.75 -27.15625 24.191406 -26.992188 24.515625 -26.671875 C 24.835938 -26.359375 25 -25.921875 25 -25.359375 L 25 -22.71875 C 25 -21.4375 25.316406 -20.394531 25.953125 -19.59375 C 26.597656 -18.789062 27.398438 -18.390625 28.359375 -18.390625 C 29.316406 -18.390625 30.113281 -18.75 30.75 -19.46875 C 31.394531 -20.1875 31.71875 -21.109375 31.71875 -22.234375 C 31.71875 -23.597656 31.078125 -24.9375 29.796875 -26.25 C 28.515625 -27.570312 25.832031 -29.675781 21.75 -32.5625 C 17.75 -35.363281 14.445312 -37.925781 11.84375 -40.25 C 9.238281 -42.582031 6.972656 -45.507812 5.046875 -49.03125 C 3.117188 -52.550781 2.15625 -56.597656 2.15625 -61.171875 C 2.15625 -65.890625 3.21875 -70.050781 5.34375 -73.65625 C 7.46875 -77.269531 10.472656 -80.078125 14.359375 -82.078125 C 18.242188 -84.078125 22.710938 -85.078125 27.765625 -85.078125 C 32.890625 -85.078125 37.394531 -84.078125 41.28125 -82.078125 C 45.164062 -80.078125 48.164062 -77.269531 50.28125 -73.65625 C 52.40625 -70.050781 53.46875 -65.890625 53.46875 -61.171875 L 53.46875 -58.53125 C 53.46875 -57.96875 53.304688 -57.523438 52.984375 -57.203125 C 52.671875 -56.878906 52.234375 -56.71875 51.671875 -56.71875 L 33.046875 -56.71875 C 32.484375 -56.71875 32.039062 -56.878906 31.71875 -57.203125 C 31.40625 -57.523438 31.25 -57.96875 31.25 -58.53125 L 31.25 -61.640625 C 31.25 -62.847656 30.925781 -63.832031 30.28125 -64.59375 C 29.644531 -65.351562 28.804688 -65.734375 27.765625 -65.734375 C 26.722656 -65.734375 25.898438 -65.332031 25.296875 -64.53125 C 24.691406 -63.726562 24.390625 -62.644531 24.390625 -61.28125 C 24.390625 -59.6875 25.03125 -58.144531 26.3125 -56.65625 C 27.59375 -55.175781 30.160156 -53.035156 34.015625 -50.234375 C 39.140625 -46.460938 43.003906 -43.414062 45.609375 -41.09375 C 48.210938 -38.769531 50.253906 -36.144531 51.734375 -33.21875 C 53.210938 -30.300781 53.953125 -26.878906 53.953125 -22.953125 C 53.953125 -15.660156 51.585938 -9.847656 46.859375 -5.515625 C 42.140625 -1.191406 35.929688 0.96875 28.234375 0.96875 Z M 28.234375 0.96875 "/></g></g></g><g fill="#ffffff" fill-opacity="1"><g transform="translate(62.161296, 119.685376)"><g><path d="M 56 -84.125 C 56.5625 -84.125 57 -83.960938 57.3125 -83.640625 C 57.632812 -83.316406 57.796875 -82.875 57.796875 -82.3125 L 57.796875 -66.578125 C 57.796875 -66.015625 57.632812 -65.570312 57.3125 -65.25 C 57 -64.925781 56.5625 -64.765625 56 -64.765625 L 41.8125 -64.765625 C 41.332031 -64.765625 41.09375 -64.523438 41.09375 -64.046875 L 41.09375 -1.796875 C 41.09375 -1.242188 40.929688 -0.804688 40.609375 -0.484375 C 40.296875 -0.160156 39.859375 0 39.296875 0 L 20.3125 0 C 19.75 0 19.304688 -0.160156 18.984375 -0.484375 C 18.660156 -0.804688 18.5 -1.242188 18.5 -1.796875 L 18.5 -64.046875 C 18.5 -64.523438 18.257812 -64.765625 17.78125 -64.765625 L 3.96875 -64.765625 C 3.40625 -64.765625 2.960938 -64.925781 2.640625 -65.25 C 2.316406 -65.570312 2.15625 -66.015625 2.15625 -66.578125 L 2.15625 -82.3125 C 2.15625 -82.875 2.316406 -83.316406 2.640625 -83.640625 C 2.960938 -83.960938 3.40625 -84.125 3.96875 -84.125 Z M 56 -84.125 "/></g></g></g><g fill="#ffffff" fill-opacity="1"><g transform="translate(122.126115, 119.685376)"><g><path d="M 40.984375 0 C 39.773438 0 39.132812 -0.5625 39.0625 -1.6875 L 37.734375 -10.6875 C 37.734375 -10.851562 37.648438 -11.015625 37.484375 -11.171875 C 37.328125 -11.335938 37.128906 -11.421875 36.890625 -11.421875 L 26.3125 -11.421875 C 26.070312 -11.421875 25.867188 -11.335938 25.703125 -11.171875 C 25.546875 -11.015625 25.46875 -10.851562 25.46875 -10.6875 L 24.28125 -1.6875 C 24.195312 -0.5625 23.554688 0 22.359375 0 L 3.484375 0 C 2.203125 0 1.679688 -0.640625 1.921875 -1.921875 L 18.984375 -82.5625 C 19.222656 -83.601562 19.90625 -84.125 21.03125 -84.125 L 42.90625 -84.125 C 44.019531 -84.125 44.695312 -83.601562 44.9375 -82.5625 L 62.015625 -1.921875 L 62.015625 -1.4375 C 62.015625 -0.476562 61.453125 0 60.328125 0 Z M 28.125 -29.4375 C 28.125 -28.957031 28.320312 -28.71875 28.71875 -28.71875 L 34.375 -28.71875 C 34.925781 -28.71875 35.125 -28.957031 34.96875 -29.4375 L 31.71875 -51.078125 C 31.644531 -51.390625 31.523438 -51.546875 31.359375 -51.546875 C 31.203125 -51.546875 31.082031 -51.390625 31 -51.078125 Z M 28.125 -29.4375 "/></g></g></g><g fill="#ffffff" fill-opacity="1"><g transform="translate(185.936377, 119.685376)"><g><path d="M 37.96875 -82.3125 C 37.96875 -82.875 38.128906 -83.316406 38.453125 -83.640625 C 38.773438 -83.960938 39.21875 -84.125 39.78125 -84.125 L 58.53125 -84.125 C 59.082031 -84.125 59.519531 -83.960938 59.84375 -83.640625 C 60.164062 -83.316406 60.328125 -82.875 60.328125 -82.3125 L 60.328125 -1.796875 C 60.328125 -1.242188 60.164062 -0.804688 59.84375 -0.484375 C 59.519531 -0.160156 59.082031 0 58.53125 0 L 37.140625 0 C 36.097656 0 35.453125 -0.519531 35.203125 -1.5625 L 26.078125 -37.96875 C 25.992188 -38.207031 25.832031 -38.328125 25.59375 -38.328125 C 25.351562 -38.328125 25.234375 -38.171875 25.234375 -37.859375 L 25.46875 -1.796875 C 25.46875 -1.242188 25.304688 -0.804688 24.984375 -0.484375 C 24.671875 -0.160156 24.234375 0 23.671875 0 L 4.921875 0 C 4.359375 0 3.914062 -0.160156 3.59375 -0.484375 C 3.28125 -0.804688 3.125 -1.242188 3.125 -1.796875 L 3.125 -82.3125 C 3.125 -82.875 3.28125 -83.316406 3.59375 -83.640625 C 3.914062 -83.960938 4.359375 -84.125 4.921875 -84.125 L 26.078125 -84.125 C 27.117188 -84.125 27.757812 -83.601562 28 -82.5625 L 37.25 -46.03125 C 37.332031 -45.707031 37.492188 -45.546875 37.734375 -45.546875 C 37.972656 -45.546875 38.09375 -45.707031 38.09375 -46.03125 Z M 37.96875 -82.3125 "/></g></g></g><g fill="#ffffff" fill-opacity="1"><g transform="translate(249.386129, 119.685376)"><g><path d="M 4.921875 0 C 4.359375 0 3.914062 -0.160156 3.59375 -0.484375 C 3.28125 -0.804688 3.125 -1.242188 3.125 -1.796875 L 3.125 -82.3125 C 3.125 -82.875 3.28125 -83.316406 3.59375 -83.640625 C 3.914062 -83.960938 4.359375 -84.125 4.921875 -84.125 L 28.59375 -84.125 C 33.882812 -84.125 38.550781 -83.117188 42.59375 -81.109375 C 46.644531 -79.109375 49.789062 -76.285156 52.03125 -72.640625 C 54.28125 -68.992188 55.40625 -64.804688 55.40625 -60.078125 L 55.40625 -24.03125 C 55.40625 -19.300781 54.28125 -15.113281 52.03125 -11.46875 C 49.789062 -7.832031 46.644531 -5.007812 42.59375 -3 C 38.550781 -1 33.882812 0 28.59375 0 Z M 25.71875 -20.0625 C 25.71875 -19.582031 25.957031 -19.34375 26.4375 -19.34375 L 28.125 -19.46875 C 29.40625 -19.550781 30.484375 -20.148438 31.359375 -21.265625 C 32.242188 -22.390625 32.726562 -23.832031 32.8125 -25.59375 L 32.8125 -58.640625 C 32.8125 -60.484375 32.367188 -61.960938 31.484375 -63.078125 C 30.597656 -64.203125 29.4375 -64.765625 28 -64.765625 L 26.4375 -64.765625 C 25.957031 -64.765625 25.71875 -64.523438 25.71875 -64.046875 Z M 25.71875 -20.0625 "/></g></g></g><g fill="#ffffff" fill-opacity="1"><g transform="translate(307.428216, 119.685376)"><g><path d="M 20.90625 -0.234375 C 20.34375 -0.234375 19.898438 -0.394531 19.578125 -0.71875 C 19.265625 -1.039062 19.109375 -1.484375 19.109375 -2.046875 L 19.109375 -29.6875 C 19.109375 -30.164062 19.066406 -30.484375 18.984375 -30.640625 L 2.15625 -82.078125 C 2.082031 -82.234375 2.046875 -82.472656 2.046875 -82.796875 C 2.046875 -83.679688 2.566406 -84.125 3.609375 -84.125 L 23.546875 -84.125 C 24.671875 -84.125 25.351562 -83.601562 25.59375 -82.5625 L 30.046875 -58.890625 C 30.117188 -58.566406 30.273438 -58.40625 30.515625 -58.40625 C 30.765625 -58.40625 30.925781 -58.566406 31 -58.890625 L 35.453125 -82.5625 C 35.691406 -83.601562 36.375 -84.125 37.5 -84.125 L 57.4375 -84.125 C 58.082031 -84.125 58.523438 -83.941406 58.765625 -83.578125 C 59.003906 -83.210938 59.046875 -82.710938 58.890625 -82.078125 L 41.8125 -30.640625 C 41.738281 -30.484375 41.703125 -30.164062 41.703125 -29.6875 L 41.703125 -2.046875 C 41.703125 -1.484375 41.539062 -1.039062 41.21875 -0.71875 C 40.894531 -0.394531 40.453125 -0.234375 39.890625 -0.234375 Z M 20.90625 -0.234375 "/></g></g></g></svg>