<svg xmlns="http://www.w3.org/2000/svg" xmlns:xlink="http://www.w3.org/1999/xlink" width="500" zoomAndPan="magnify" viewBox="0 0 375 143.999998" height="192" preserveAspectRatio="xMidYMid meet" version="1.0"><defs><g/><clipPath id="d02833f683"><path d="M 219.058594 61.207031 L 270.777344 61.207031 L 270.777344 112.925781 L 219.058594 112.925781 Z M 219.058594 61.207031 " clip-rule="nonzero"/></clipPath><clipPath id="9e37f83f5f"><path d="M 271.699219 61.207031 L 323.417969 61.207031 L 323.417969 112.925781 L 271.699219 112.925781 Z M 271.699219 61.207031 " clip-rule="nonzero"/></clipPath><clipPath id="de10cae824"><path d="M 72.457031 61.207031 L 124.175781 61.207031 L 124.175781 112.925781 L 72.457031 112.925781 Z M 72.457031 61.207031 " clip-rule="nonzero"/></clipPath></defs><g fill="#000000" fill-opacity="1"><g transform="translate(-1.135789, 115.287004)"><g><path d="M 46.25 1.171875 C 40.425781 1.171875 35.023438 0.101562 30.046875 -2.03125 C 25.078125 -4.164062 20.75 -7.132812 17.0625 -10.9375 C 13.375 -14.75 10.519531 -19.175781 8.5 -24.21875 C 6.476562 -29.269531 5.46875 -34.671875 5.46875 -40.421875 C 5.46875 -46.242188 6.476562 -51.675781 8.5 -56.71875 C 10.519531 -61.769531 13.375 -66.175781 17.0625 -69.9375 C 20.75 -73.707031 25.054688 -76.660156 29.984375 -78.796875 C 34.921875 -80.929688 40.300781 -82 46.125 -82 C 52.488281 -82 58.078125 -80.910156 62.890625 -78.734375 C 67.710938 -76.566406 71.988281 -73.617188 75.71875 -69.890625 L 68.140625 -62.3125 C 65.578125 -65.1875 62.453125 -67.4375 58.765625 -69.0625 C 55.078125 -70.695312 50.863281 -71.515625 46.125 -71.515625 C 41.851562 -71.515625 37.929688 -70.757812 34.359375 -69.25 C 30.785156 -67.738281 27.675781 -65.582031 25.03125 -62.78125 C 22.394531 -59.988281 20.359375 -56.6875 18.921875 -52.875 C 17.492188 -49.070312 16.78125 -44.921875 16.78125 -40.421875 C 16.78125 -35.910156 17.492188 -31.753906 18.921875 -27.953125 C 20.359375 -24.148438 22.394531 -20.847656 25.03125 -18.046875 C 27.675781 -15.253906 30.785156 -13.097656 34.359375 -11.578125 C 37.929688 -10.066406 41.851562 -9.3125 46.125 -9.3125 C 51.175781 -9.3125 55.5625 -10.144531 59.28125 -11.8125 C 63.007812 -13.488281 66.15625 -15.765625 68.71875 -18.640625 L 76.296875 -11.1875 C 72.566406 -7.300781 68.195312 -4.269531 63.1875 -2.09375 C 58.175781 0.0820312 52.53125 1.171875 46.25 1.171875 Z M 46.25 1.171875 "/></g></g></g><g fill="#000000" fill-opacity="1"><g transform="translate(65.019924, 115.287004)"><g><path d="M 32.96875 1.171875 C 27.53125 1.171875 22.632812 -0.109375 18.28125 -2.671875 C 13.9375 -5.234375 10.484375 -8.707031 7.921875 -13.09375 C 5.359375 -17.488281 4.078125 -22.40625 4.078125 -27.84375 C 4.078125 -33.195312 5.359375 -38.03125 7.921875 -42.34375 C 10.484375 -46.65625 13.9375 -50.09375 18.28125 -52.65625 C 22.632812 -55.21875 27.53125 -56.5 32.96875 -56.5 C 38.320312 -56.5 43.191406 -55.234375 47.578125 -52.703125 C 51.972656 -50.179688 55.453125 -46.742188 58.015625 -42.390625 C 60.578125 -38.046875 61.859375 -33.195312 61.859375 -27.84375 C 61.859375 -22.40625 60.578125 -17.488281 58.015625 -13.09375 C 55.453125 -8.707031 51.972656 -5.234375 47.578125 -2.671875 C 43.191406 -0.109375 38.320312 1.171875 32.96875 1.171875 Z M 32.96875 -8.96875 C 36.457031 -8.96875 39.5625 -9.78125 42.28125 -11.40625 C 45 -13.039062 47.132812 -15.273438 48.6875 -18.109375 C 50.238281 -20.941406 51.015625 -24.1875 51.015625 -27.84375 C 51.015625 -31.414062 50.21875 -34.597656 48.625 -37.390625 C 47.039062 -40.179688 44.90625 -42.375 42.21875 -43.96875 C 39.539062 -45.5625 36.457031 -46.359375 32.96875 -46.359375 C 29.46875 -46.359375 26.359375 -45.5625 23.640625 -43.96875 C 20.921875 -42.375 18.785156 -40.179688 17.234375 -37.390625 C 15.679688 -34.597656 14.90625 -31.414062 14.90625 -27.84375 C 14.90625 -24.1875 15.679688 -20.941406 17.234375 -18.109375 C 18.785156 -15.273438 20.921875 -13.039062 23.640625 -11.40625 C 26.359375 -9.78125 29.46875 -8.96875 32.96875 -8.96875 Z M 32.96875 -8.96875 "/></g></g></g><g fill="#000000" fill-opacity="1"><g transform="translate(116.965758, 115.287004)"><g><path d="M 46.828125 0 L 46.828125 -32.265625 C 46.828125 -36.460938 45.503906 -39.914062 42.859375 -42.625 C 40.222656 -45.34375 36.804688 -46.703125 32.609375 -46.703125 C 29.816406 -46.703125 27.332031 -46.082031 25.15625 -44.84375 C 22.988281 -43.601562 21.28125 -41.894531 20.03125 -39.71875 C 18.789062 -37.539062 18.171875 -35.054688 18.171875 -32.265625 L 13.859375 -34.71875 C 13.859375 -38.90625 14.789062 -42.628906 16.65625 -45.890625 C 18.519531 -49.148438 21.117188 -51.734375 24.453125 -53.640625 C 27.796875 -55.546875 31.566406 -56.5 35.765625 -56.5 C 39.953125 -56.5 43.65625 -55.445312 46.875 -53.34375 C 50.101562 -51.25 52.648438 -48.515625 54.515625 -45.140625 C 56.378906 -41.765625 57.3125 -38.171875 57.3125 -34.359375 L 57.3125 0 Z M 7.6875 0 L 7.6875 -55.328125 L 18.171875 -55.328125 L 18.171875 0 Z M 7.6875 0 "/></g></g></g><g fill="#000000" fill-opacity="1"><g transform="translate(166.815047, 115.287004)"><g><path d="M 26.671875 0 L 1.28125 -55.328125 L 12.9375 -55.328125 L 33.3125 -8.625 L 26.5625 -8.625 L 47.0625 -55.328125 L 58.25 -55.328125 L 32.84375 0 Z M 26.671875 0 "/></g></g></g><g fill="#000000" fill-opacity="1"><g transform="translate(212.354776, 115.287004)"><g><path d="M 32.96875 1.171875 C 27.53125 1.171875 22.632812 -0.109375 18.28125 -2.671875 C 13.9375 -5.234375 10.484375 -8.707031 7.921875 -13.09375 C 5.359375 -17.488281 4.078125 -22.40625 4.078125 -27.84375 C 4.078125 -33.195312 5.359375 -38.03125 7.921875 -42.34375 C 10.484375 -46.65625 13.9375 -50.09375 18.28125 -52.65625 C 22.632812 -55.21875 27.53125 -56.5 32.96875 -56.5 C 38.320312 -56.5 43.191406 -55.234375 47.578125 -52.703125 C 51.972656 -50.179688 55.453125 -46.742188 58.015625 -42.390625 C 60.578125 -38.046875 61.859375 -33.195312 61.859375 -27.84375 C 61.859375 -22.40625 60.578125 -17.488281 58.015625 -13.09375 C 55.453125 -8.707031 51.972656 -5.234375 47.578125 -2.671875 C 43.191406 -0.109375 38.320312 1.171875 32.96875 1.171875 Z M 32.96875 -8.96875 C 36.457031 -8.96875 39.5625 -9.78125 42.28125 -11.40625 C 45 -13.039062 47.132812 -15.273438 48.6875 -18.109375 C 50.238281 -20.941406 51.015625 -24.1875 51.015625 -27.84375 C 51.015625 -31.414062 50.21875 -34.597656 48.625 -37.390625 C 47.039062 -40.179688 44.90625 -42.375 42.21875 -43.96875 C 39.539062 -45.5625 36.457031 -46.359375 32.96875 -46.359375 C 29.46875 -46.359375 26.359375 -45.5625 23.640625 -43.96875 C 20.921875 -42.375 18.785156 -40.179688 17.234375 -37.390625 C 15.679688 -34.597656 14.90625 -31.414062 14.90625 -27.84375 C 14.90625 -24.1875 15.679688 -20.941406 17.234375 -18.109375 C 18.785156 -15.273438 20.921875 -13.039062 23.640625 -11.40625 C 26.359375 -9.78125 29.46875 -8.96875 32.96875 -8.96875 Z M 32.96875 -8.96875 "/></g></g></g><g fill="#000000" fill-opacity="1"><g transform="translate(264.300601, 115.287004)"><g><path d="M 32.96875 1.171875 C 27.53125 1.171875 22.632812 -0.109375 18.28125 -2.671875 C 13.9375 -5.234375 10.484375 -8.707031 7.921875 -13.09375 C 5.359375 -17.488281 4.078125 -22.40625 4.078125 -27.84375 C 4.078125 -33.195312 5.359375 -38.03125 7.921875 -42.34375 C 10.484375 -46.65625 13.9375 -50.09375 18.28125 -52.65625 C 22.632812 -55.21875 27.53125 -56.5 32.96875 -56.5 C 38.320312 -56.5 43.191406 -55.234375 47.578125 -52.703125 C 51.972656 -50.179688 55.453125 -46.742188 58.015625 -42.390625 C 60.578125 -38.046875 61.859375 -33.195312 61.859375 -27.84375 C 61.859375 -22.40625 60.578125 -17.488281 58.015625 -13.09375 C 55.453125 -8.707031 51.972656 -5.234375 47.578125 -2.671875 C 43.191406 -0.109375 38.320312 1.171875 32.96875 1.171875 Z M 32.96875 -8.96875 C 36.457031 -8.96875 39.5625 -9.78125 42.28125 -11.40625 C 45 -13.039062 47.132812 -15.273438 48.6875 -18.109375 C 50.238281 -20.941406 51.015625 -24.1875 51.015625 -27.84375 C 51.015625 -31.414062 50.21875 -34.597656 48.625 -37.390625 C 47.039062 -40.179688 44.90625 -42.375 42.21875 -43.96875 C 39.539062 -45.5625 36.457031 -46.359375 32.96875 -46.359375 C 29.46875 -46.359375 26.359375 -45.5625 23.640625 -43.96875 C 20.921875 -42.375 18.785156 -40.179688 17.234375 -37.390625 C 15.679688 -34.597656 14.90625 -31.414062 14.90625 -27.84375 C 14.90625 -24.1875 15.679688 -20.941406 17.234375 -18.109375 C 18.785156 -15.273438 20.921875 -13.039062 23.640625 -11.40625 C 26.359375 -9.78125 29.46875 -8.96875 32.96875 -8.96875 Z M 32.96875 -8.96875 "/></g></g></g><g fill="#000000" fill-opacity="1"><g transform="translate(316.246426, 115.287004)"><g><path d="M 25.859375 0.46875 L 1.859375 -55.328125 L 13.515625 -55.328125 L 31.328125 -11.65625 L 27.609375 -11.65625 L 46.359375 -55.328125 L 58.015625 -55.328125 L 32.15625 0.46875 Z M 10.015625 23.1875 L 26.328125 -10.25 L 32.15625 0.46875 L 21.671875 23.1875 Z M 10.015625 23.1875 "/></g></g></g><g clip-path="url(#d02833f683)"><path fill="#000000" d="M 244.917969 112.925781 C 259.175781 112.925781 270.777344 101.324219 270.777344 87.066406 C 270.777344 72.804688 259.175781 61.207031 244.917969 61.207031 C 230.65625 61.207031 219.058594 72.804688 219.058594 87.066406 C 219.058594 101.324219 230.65625 112.925781 244.917969 112.925781 Z M 244.917969 62.023438 C 258.726562 62.023438 269.960938 73.257812 269.960938 87.066406 C 269.960938 100.875 258.726562 112.109375 244.917969 112.109375 C 231.109375 112.109375 219.875 100.875 219.875 87.066406 C 219.875 73.257812 231.109375 62.023438 244.917969 62.023438 Z M 244.917969 106.171875 C 255.453125 106.171875 264.019531 97.601562 264.019531 87.066406 C 264.019531 76.53125 255.453125 67.960938 244.917969 67.960938 C 234.382812 67.960938 225.8125 76.53125 225.8125 87.066406 C 225.8125 97.601562 234.382812 106.171875 244.917969 106.171875 Z M 244.917969 68.777344 C 255 68.777344 263.203125 76.980469 263.203125 87.066406 C 263.203125 97.148438 255 105.355469 244.917969 105.355469 C 234.832031 105.355469 226.628906 97.148438 226.628906 87.066406 C 226.628906 76.980469 234.832031 68.777344 244.917969 68.777344 Z M 244.917969 90.367188 C 245.355469 90.367188 245.777344 90.28125 246.179688 90.117188 C 246.585938 89.949219 246.941406 89.710938 247.25 89.398438 C 247.5625 89.089844 247.800781 88.734375 247.96875 88.328125 C 248.132812 87.925781 248.21875 87.503906 248.21875 87.066406 C 248.21875 86.628906 248.132812 86.207031 247.96875 85.804688 C 247.800781 85.398438 247.5625 85.042969 247.25 84.730469 C 246.941406 84.421875 246.585938 84.183594 246.179688 84.015625 C 245.777344 83.847656 245.355469 83.765625 244.917969 83.765625 C 244.480469 83.765625 244.058594 83.847656 243.652344 84.015625 C 243.25 84.183594 242.894531 84.421875 242.582031 84.730469 C 242.273438 85.042969 242.035156 85.398438 241.867188 85.804688 C 241.699219 86.207031 241.617188 86.628906 241.617188 87.066406 C 241.617188 87.503906 241.699219 87.925781 241.867188 88.328125 C 242.035156 88.734375 242.273438 89.089844 242.585938 89.398438 C 242.894531 89.707031 243.25 89.945312 243.65625 90.113281 C 244.058594 90.28125 244.480469 90.367188 244.917969 90.367188 Z M 244.917969 84.582031 C 245.246094 84.582031 245.5625 84.644531 245.867188 84.769531 C 246.171875 84.894531 246.441406 85.074219 246.675781 85.308594 C 246.90625 85.542969 247.085938 85.8125 247.210938 86.113281 C 247.339844 86.417969 247.402344 86.734375 247.402344 87.066406 C 247.402344 87.394531 247.339844 87.710938 247.210938 88.015625 C 247.085938 88.320312 246.90625 88.589844 246.675781 88.824219 C 246.441406 89.054688 246.171875 89.234375 245.867188 89.359375 C 245.5625 89.488281 245.246094 89.550781 244.917969 89.550781 C 244.585938 89.550781 244.269531 89.488281 243.964844 89.359375 C 243.660156 89.234375 243.394531 89.054688 243.160156 88.824219 C 242.925781 88.589844 242.746094 88.320312 242.621094 88.015625 C 242.496094 87.710938 242.433594 87.394531 242.433594 87.066406 C 242.433594 86.738281 242.496094 86.417969 242.621094 86.117188 C 242.75 85.8125 242.929688 85.542969 243.160156 85.308594 C 243.394531 85.078125 243.664062 84.898438 243.96875 84.773438 C 244.269531 84.644531 244.589844 84.582031 244.917969 84.582031 Z M 244.078125 80.632812 C 244.246094 80.988281 244.523438 81.167969 244.917969 81.167969 C 245.308594 81.167969 245.589844 80.988281 245.757812 80.632812 L 249.925781 71.667969 C 249.976562 71.554688 249.980469 71.441406 249.925781 71.328125 C 249.875 71.214844 249.792969 71.140625 249.671875 71.105469 C 246.503906 70.167969 243.332031 70.167969 240.164062 71.105469 C 240.042969 71.140625 239.957031 71.214844 239.90625 71.328125 C 239.855469 71.441406 239.855469 71.554688 239.910156 71.667969 Z M 248.984375 71.757812 L 245.015625 80.289062 C 244.996094 80.332031 244.964844 80.351562 244.917969 80.351562 C 244.871094 80.351562 244.839844 80.332031 244.820312 80.289062 L 240.851562 71.757812 C 243.5625 71.042969 246.273438 71.042969 248.984375 71.757812 Z M 250.816406 87.066406 C 250.8125 87.460938 250.992188 87.742188 251.351562 87.90625 L 260.316406 92.074219 C 260.429688 92.125 260.542969 92.128906 260.65625 92.078125 C 260.769531 92.023438 260.84375 91.941406 260.878906 91.820312 C 261.339844 90.269531 261.570312 88.683594 261.570312 87.066406 C 261.570312 85.449219 261.339844 83.863281 260.878906 82.3125 C 260.84375 82.191406 260.769531 82.105469 260.65625 82.054688 C 260.542969 82.003906 260.429688 82.003906 260.316406 82.058594 L 251.351562 86.226562 C 250.992188 86.390625 250.8125 86.671875 250.816406 87.066406 Z M 251.695312 86.96875 L 260.222656 83 C 260.945312 85.710938 260.945312 88.421875 260.222656 91.132812 L 251.695312 87.164062 C 251.652344 87.144531 251.632812 87.113281 251.632812 87.066406 C 251.632812 87.019531 251.652344 86.988281 251.695312 86.96875 Z M 247.941406 84.03125 L 248.226562 83.742188 L 247.953125 84.042969 C 248.328125 84.425781 248.785156 84.621094 249.320312 84.625 C 249.574219 84.625 249.820312 84.574219 250.054688 84.46875 L 259.648438 80.25 C 259.757812 80.203125 259.828125 80.125 259.867188 80.015625 C 259.910156 79.90625 259.902344 79.796875 259.851562 79.695312 C 259.035156 78.054688 257.984375 76.589844 256.6875 75.296875 C 255.394531 74 253.929688 72.945312 252.289062 72.132812 C 252.1875 72.082031 252.078125 72.074219 251.96875 72.113281 C 251.859375 72.15625 251.78125 72.226562 251.734375 72.335938 L 247.515625 81.929688 C 247.203125 82.636719 247.371094 83.460938 247.941406 84.03125 Z M 248.261719 82.257812 L 252.308594 73.058594 C 253.714844 73.808594 254.984375 74.746094 256.113281 75.871094 C 257.238281 77 258.175781 78.265625 258.925781 79.675781 L 249.726562 83.722656 C 249.328125 83.898438 248.859375 83.796875 248.53125 83.464844 C 248.53125 83.464844 248.519531 83.457031 248.515625 83.453125 C 248.1875 83.125 248.085938 82.652344 248.261719 82.257812 Z M 230.183594 80.25 L 239.777344 84.46875 C 240.011719 84.574219 240.257812 84.625 240.515625 84.625 C 241.050781 84.621094 241.507812 84.425781 241.882812 84.042969 L 241.59375 83.753906 L 241.894531 84.03125 C 242.464844 83.460938 242.632812 82.636719 242.320312 81.929688 L 238.097656 72.332031 C 238.050781 72.226562 237.972656 72.15625 237.867188 72.113281 C 237.757812 72.074219 237.648438 72.082031 237.546875 72.132812 C 235.90625 72.945312 234.441406 74 233.144531 75.292969 C 231.851562 76.589844 230.796875 78.054688 229.984375 79.695312 C 229.933594 79.796875 229.925781 79.90625 229.964844 80.015625 C 230.003906 80.125 230.078125 80.203125 230.183594 80.25 Z M 237.527344 73.058594 L 241.574219 82.257812 C 241.660156 82.460938 241.679688 82.671875 241.632812 82.890625 C 241.585938 83.109375 241.484375 83.292969 241.324219 83.449219 C 241.320312 83.449219 241.304688 83.464844 241.304688 83.46875 C 240.972656 83.796875 240.503906 83.898438 240.109375 83.722656 L 230.910156 79.675781 C 231.65625 78.265625 232.59375 77 233.722656 75.871094 C 234.851562 74.746094 236.117188 73.808594 237.527344 73.058594 Z M 259.648438 93.882812 L 250.054688 89.664062 C 249.347656 89.351562 248.523438 89.519531 247.953125 90.089844 L 248.242188 90.375 L 247.941406 90.101562 C 247.371094 90.671875 247.203125 91.496094 247.515625 92.203125 L 251.734375 101.796875 C 251.78125 101.90625 251.859375 101.976562 251.96875 102.015625 C 252.078125 102.058594 252.1875 102.050781 252.289062 102 C 253.929688 101.183594 255.394531 100.132812 256.6875 98.835938 C 257.984375 97.542969 259.035156 96.078125 259.851562 94.4375 C 259.902344 94.335938 259.910156 94.226562 259.867188 94.117188 C 259.828125 94.007812 259.753906 93.929688 259.648438 93.882812 Z M 252.308594 101.074219 L 248.261719 91.875 C 248.175781 91.667969 248.15625 91.457031 248.203125 91.242188 C 248.246094 91.023438 248.351562 90.835938 248.511719 90.683594 L 248.53125 90.664062 C 248.746094 90.441406 249.011719 90.328125 249.320312 90.324219 C 249.460938 90.324219 249.597656 90.351562 249.726562 90.410156 L 258.925781 94.457031 C 258.175781 95.863281 257.238281 97.132812 256.113281 98.261719 C 254.984375 99.386719 253.714844 100.324219 252.308594 101.074219 Z M 228.957031 91.820312 C 228.992188 91.941406 229.066406 92.023438 229.179688 92.078125 C 229.292969 92.128906 229.40625 92.125 229.519531 92.074219 L 238.484375 87.90625 C 238.839844 87.738281 239.019531 87.460938 239.019531 87.066406 C 239.019531 86.671875 238.839844 86.394531 238.484375 86.226562 L 229.519531 82.058594 C 229.40625 82.003906 229.292969 82.003906 229.179688 82.054688 C 229.066406 82.105469 228.992188 82.191406 228.957031 82.3125 C 228.496094 83.863281 228.261719 85.449219 228.261719 87.066406 C 228.261719 88.683594 228.496094 90.269531 228.957031 91.820312 Z M 229.609375 83 L 238.140625 86.96875 C 238.183594 86.988281 238.203125 87.019531 238.203125 87.066406 C 238.203125 87.113281 238.183594 87.144531 238.140625 87.164062 L 229.609375 91.132812 C 228.890625 88.421875 228.890625 85.710938 229.609375 83 Z M 245.757812 93.5 C 245.589844 93.140625 245.3125 92.964844 244.917969 92.964844 C 244.523438 92.964844 244.246094 93.140625 244.078125 93.5 L 239.910156 102.464844 C 239.855469 102.578125 239.855469 102.691406 239.90625 102.804688 C 239.957031 102.917969 240.042969 102.992188 240.164062 103.027344 C 241.714844 103.488281 243.296875 103.71875 244.917969 103.71875 C 246.535156 103.71875 248.121094 103.488281 249.671875 103.027344 C 249.792969 102.992188 249.875 102.917969 249.925781 102.804688 C 249.980469 102.691406 249.976562 102.578125 249.925781 102.464844 Z M 240.851562 102.375 L 244.820312 93.84375 C 244.867188 93.738281 244.96875 93.738281 245.015625 93.84375 L 248.984375 102.375 C 246.273438 103.089844 243.5625 103.089844 240.851562 102.375 Z M 241.894531 90.101562 L 241.605469 90.390625 L 241.882812 90.089844 C 241.3125 89.515625 240.488281 89.351562 239.777344 89.660156 L 230.183594 93.882812 C 230.078125 93.929688 230.003906 94.007812 229.964844 94.117188 C 229.925781 94.226562 229.933594 94.332031 229.984375 94.4375 C 230.796875 96.078125 231.851562 97.542969 233.144531 98.835938 C 234.441406 100.128906 235.90625 101.183594 237.542969 102 C 237.648438 102.050781 237.757812 102.058594 237.863281 102.015625 C 237.972656 101.976562 238.050781 101.902344 238.097656 101.796875 L 242.320312 92.203125 C 242.632812 91.496094 242.464844 90.671875 241.894531 90.101562 Z M 241.574219 91.875 L 237.527344 101.074219 C 236.117188 100.324219 234.851562 99.386719 233.722656 98.261719 C 232.597656 97.132812 231.65625 95.863281 230.910156 94.457031 L 240.109375 90.410156 C 240.503906 90.234375 240.976562 90.335938 241.304688 90.664062 C 241.304688 90.667969 241.3125 90.675781 241.320312 90.679688 C 241.648438 91.007812 241.75 91.476562 241.574219 91.875 Z M 241.574219 91.875 " fill-opacity="1" fill-rule="nonzero"/></g><g clip-path="url(#9e37f83f5f)"><path fill="#000000" d="M 297.558594 112.925781 C 311.816406 112.925781 323.417969 101.324219 323.417969 87.066406 C 323.417969 72.804688 311.816406 61.207031 297.558594 61.207031 C 283.296875 61.207031 271.699219 72.804688 271.699219 87.066406 C 271.699219 101.324219 283.296875 112.925781 297.558594 112.925781 Z M 297.558594 62.023438 C 311.367188 62.023438 322.601562 73.257812 322.601562 87.066406 C 322.601562 100.875 311.367188 112.109375 297.558594 112.109375 C 283.75 112.109375 272.515625 100.875 272.515625 87.066406 C 272.515625 73.257812 283.75 62.023438 297.558594 62.023438 Z M 297.558594 106.171875 C 308.09375 106.171875 316.664062 97.601562 316.664062 87.066406 C 316.664062 76.53125 308.09375 67.960938 297.558594 67.960938 C 287.023438 67.960938 278.453125 76.53125 278.453125 87.066406 C 278.453125 97.601562 287.023438 106.171875 297.558594 106.171875 Z M 297.558594 68.777344 C 307.640625 68.777344 315.847656 76.980469 315.847656 87.066406 C 315.847656 97.148438 307.640625 105.355469 297.558594 105.355469 C 287.472656 105.355469 279.269531 97.148438 279.269531 87.066406 C 279.269531 76.980469 287.472656 68.777344 297.558594 68.777344 Z M 297.558594 90.367188 C 297.996094 90.367188 298.417969 90.28125 298.820312 90.117188 C 299.226562 89.949219 299.582031 89.710938 299.890625 89.398438 C 300.203125 89.089844 300.441406 88.734375 300.609375 88.328125 C 300.773438 87.925781 300.859375 87.503906 300.859375 87.066406 C 300.859375 86.628906 300.773438 86.207031 300.609375 85.804688 C 300.441406 85.398438 300.203125 85.042969 299.890625 84.730469 C 299.582031 84.421875 299.226562 84.183594 298.820312 84.015625 C 298.417969 83.847656 297.996094 83.765625 297.558594 83.765625 C 297.121094 83.765625 296.699219 83.847656 296.292969 84.015625 C 295.890625 84.183594 295.535156 84.421875 295.222656 84.730469 C 294.914062 85.042969 294.675781 85.398438 294.507812 85.804688 C 294.339844 86.207031 294.257812 86.628906 294.257812 87.066406 C 294.257812 87.503906 294.339844 87.925781 294.507812 88.328125 C 294.675781 88.734375 294.914062 89.089844 295.226562 89.398438 C 295.535156 89.707031 295.890625 89.945312 296.296875 90.113281 C 296.699219 90.28125 297.121094 90.367188 297.558594 90.367188 Z M 297.558594 84.582031 C 297.886719 84.582031 298.203125 84.644531 298.507812 84.769531 C 298.8125 84.894531 299.082031 85.074219 299.316406 85.308594 C 299.546875 85.542969 299.726562 85.8125 299.851562 86.113281 C 299.980469 86.417969 300.042969 86.734375 300.042969 87.066406 C 300.042969 87.394531 299.980469 87.710938 299.851562 88.015625 C 299.726562 88.320312 299.546875 88.589844 299.316406 88.824219 C 299.082031 89.054688 298.8125 89.234375 298.507812 89.359375 C 298.203125 89.488281 297.886719 89.550781 297.558594 89.550781 C 297.230469 89.550781 296.910156 89.488281 296.605469 89.359375 C 296.304688 89.234375 296.035156 89.054688 295.800781 88.824219 C 295.566406 88.589844 295.386719 88.320312 295.261719 88.015625 C 295.136719 87.710938 295.074219 87.394531 295.074219 87.066406 C 295.074219 86.738281 295.136719 86.417969 295.261719 86.117188 C 295.390625 85.8125 295.570312 85.542969 295.800781 85.308594 C 296.035156 85.078125 296.304688 84.898438 296.609375 84.773438 C 296.910156 84.644531 297.230469 84.582031 297.558594 84.582031 Z M 296.71875 80.632812 C 296.886719 80.988281 297.164062 81.167969 297.558594 81.167969 C 297.953125 81.167969 298.230469 80.988281 298.398438 80.632812 L 302.566406 71.667969 C 302.617188 71.554688 302.621094 71.441406 302.570312 71.328125 C 302.515625 71.214844 302.433594 71.140625 302.3125 71.105469 C 299.144531 70.167969 295.972656 70.167969 292.804688 71.105469 C 292.683594 71.140625 292.597656 71.214844 292.546875 71.328125 C 292.496094 71.441406 292.496094 71.554688 292.550781 71.667969 Z M 301.625 71.757812 L 297.65625 80.289062 C 297.636719 80.332031 297.605469 80.351562 297.558594 80.351562 C 297.511719 80.351562 297.480469 80.332031 297.460938 80.289062 L 293.492188 71.757812 C 296.203125 71.042969 298.914062 71.042969 301.625 71.757812 Z M 303.457031 87.066406 C 303.453125 87.460938 303.632812 87.742188 303.992188 87.90625 L 312.957031 92.074219 C 313.070312 92.125 313.183594 92.128906 313.296875 92.078125 C 313.410156 92.023438 313.484375 91.941406 313.519531 91.820312 C 313.980469 90.269531 314.210938 88.683594 314.210938 87.066406 C 314.210938 85.449219 313.980469 83.863281 313.519531 82.3125 C 313.484375 82.191406 313.410156 82.105469 313.296875 82.054688 C 313.183594 82.003906 313.070312 82.003906 312.957031 82.058594 L 303.992188 86.226562 C 303.632812 86.390625 303.453125 86.671875 303.457031 87.066406 Z M 304.335938 86.96875 L 312.863281 83 C 313.585938 85.710938 313.585938 88.421875 312.863281 91.132812 L 304.335938 87.164062 C 304.292969 87.144531 304.273438 87.113281 304.273438 87.066406 C 304.273438 87.019531 304.292969 86.988281 304.335938 86.96875 Z M 300.582031 84.03125 L 300.867188 83.742188 L 300.59375 84.042969 C 300.96875 84.425781 301.425781 84.621094 301.960938 84.625 C 302.214844 84.625 302.460938 84.574219 302.695312 84.46875 L 312.289062 80.25 C 312.398438 80.203125 312.46875 80.125 312.507812 80.015625 C 312.550781 79.90625 312.542969 79.796875 312.492188 79.695312 C 311.675781 78.054688 310.625 76.589844 309.328125 75.296875 C 308.035156 74 306.570312 72.945312 304.929688 72.132812 C 304.828125 72.082031 304.71875 72.074219 304.609375 72.113281 C 304.5 72.15625 304.421875 72.226562 304.375 72.335938 L 300.15625 81.929688 C 299.84375 82.636719 300.011719 83.460938 300.582031 84.03125 Z M 300.902344 82.257812 L 304.949219 73.058594 C 306.355469 73.808594 307.625 74.746094 308.753906 75.871094 C 309.878906 77 310.816406 78.265625 311.566406 79.675781 L 302.367188 83.722656 C 301.96875 83.898438 301.5 83.796875 301.171875 83.464844 C 301.171875 83.464844 301.164062 83.457031 301.15625 83.453125 C 300.828125 83.125 300.726562 82.652344 300.902344 82.257812 Z M 282.824219 80.25 L 292.417969 84.46875 C 292.652344 84.574219 292.898438 84.625 293.15625 84.625 C 293.691406 84.621094 294.148438 84.425781 294.523438 84.042969 L 294.234375 83.753906 L 294.535156 84.03125 C 295.105469 83.460938 295.273438 82.636719 294.960938 81.929688 L 290.738281 72.332031 C 290.691406 72.226562 290.613281 72.15625 290.507812 72.113281 C 290.398438 72.074219 290.289062 72.082031 290.1875 72.132812 C 288.546875 72.945312 287.082031 74 285.785156 75.292969 C 284.492188 76.589844 283.4375 78.054688 282.625 79.695312 C 282.574219 79.796875 282.566406 79.90625 282.605469 80.015625 C 282.644531 80.125 282.71875 80.203125 282.824219 80.25 Z M 290.167969 73.058594 L 294.214844 82.257812 C 294.300781 82.460938 294.320312 82.671875 294.273438 82.890625 C 294.226562 83.109375 294.125 83.292969 293.964844 83.449219 C 293.960938 83.449219 293.945312 83.464844 293.945312 83.46875 C 293.613281 83.796875 293.144531 83.898438 292.75 83.722656 L 283.550781 79.675781 C 284.296875 78.265625 285.234375 77 286.363281 75.871094 C 287.492188 74.746094 288.757812 73.808594 290.167969 73.058594 Z M 312.289062 93.882812 L 302.695312 89.664062 C 301.988281 89.351562 301.164062 89.519531 300.59375 90.089844 L 300.882812 90.375 L 300.582031 90.101562 C 300.011719 90.671875 299.84375 91.496094 300.15625 92.203125 L 304.375 101.796875 C 304.421875 101.90625 304.5 101.976562 304.609375 102.015625 C 304.71875 102.058594 304.828125 102.050781 304.929688 102 C 306.570312 101.183594 308.035156 100.132812 309.328125 98.835938 C 310.625 97.542969 311.675781 96.078125 312.492188 94.4375 C 312.542969 94.335938 312.550781 94.226562 312.507812 94.117188 C 312.46875 94.007812 312.394531 93.929688 312.289062 93.882812 Z M 304.949219 101.074219 L 300.902344 91.875 C 300.816406 91.667969 300.796875 91.457031 300.84375 91.242188 C 300.886719 91.023438 300.992188 90.835938 301.152344 90.683594 L 301.171875 90.664062 C 301.386719 90.441406 301.652344 90.328125 301.960938 90.324219 C 302.101562 90.324219 302.238281 90.351562 302.367188 90.410156 L 311.566406 94.457031 C 310.816406 95.863281 309.878906 97.132812 308.753906 98.261719 C 307.625 99.386719 306.355469 100.324219 304.949219 101.074219 Z M 281.597656 91.820312 C 281.632812 91.941406 281.707031 92.023438 281.820312 92.078125 C 281.933594 92.128906 282.046875 92.125 282.160156 92.074219 L 291.125 87.90625 C 291.480469 87.738281 291.660156 87.460938 291.660156 87.066406 C 291.660156 86.671875 291.480469 86.394531 291.125 86.226562 L 282.160156 82.058594 C 282.046875 82.003906 281.933594 82.003906 281.820312 82.054688 C 281.707031 82.105469 281.632812 82.191406 281.597656 82.3125 C 281.136719 83.863281 280.902344 85.449219 280.902344 87.066406 C 280.902344 88.683594 281.136719 90.269531 281.597656 91.820312 Z M 282.25 83 L 290.78125 86.96875 C 290.824219 86.988281 290.84375 87.019531 290.84375 87.066406 C 290.84375 87.113281 290.824219 87.144531 290.78125 87.164062 L 282.25 91.132812 C 281.53125 88.421875 281.53125 85.710938 282.25 83 Z M 298.398438 93.5 C 298.230469 93.140625 297.953125 92.964844 297.558594 92.964844 C 297.164062 92.964844 296.886719 93.140625 296.71875 93.5 L 292.550781 102.464844 C 292.496094 102.578125 292.496094 102.691406 292.546875 102.804688 C 292.597656 102.917969 292.683594 102.992188 292.804688 103.027344 C 294.355469 103.488281 295.9375 103.71875 297.558594 103.71875 C 299.175781 103.71875 300.761719 103.488281 302.3125 103.027344 C 302.433594 102.992188 302.515625 102.917969 302.570312 102.804688 C 302.621094 102.691406 302.617188 102.578125 302.566406 102.464844 Z M 293.492188 102.375 L 297.460938 93.84375 C 297.507812 93.738281 297.609375 93.738281 297.65625 93.84375 L 301.625 102.375 C 298.914062 103.089844 296.203125 103.089844 293.492188 102.375 Z M 294.535156 90.101562 L 294.246094 90.390625 L 294.523438 90.089844 C 293.953125 89.515625 293.128906 89.351562 292.417969 89.660156 L 282.824219 93.882812 C 282.71875 93.929688 282.644531 94.007812 282.605469 94.117188 C 282.566406 94.226562 282.574219 94.332031 282.625 94.4375 C 283.4375 96.078125 284.492188 97.542969 285.785156 98.835938 C 287.082031 100.128906 288.546875 101.183594 290.183594 102 C 290.289062 102.050781 290.398438 102.058594 290.507812 102.015625 C 290.613281 101.976562 290.691406 101.902344 290.738281 101.796875 L 294.960938 92.203125 C 295.273438 91.496094 295.105469 90.671875 294.535156 90.101562 Z M 294.214844 91.875 L 290.167969 101.074219 C 288.757812 100.324219 287.492188 99.386719 286.363281 98.261719 C 285.238281 97.132812 284.296875 95.863281 283.550781 94.457031 L 292.75 90.410156 C 293.144531 90.234375 293.617188 90.335938 293.945312 90.664062 C 293.945312 90.667969 293.953125 90.675781 293.960938 90.679688 C 294.289062 91.007812 294.390625 91.476562 294.214844 91.875 Z M 294.214844 91.875 " fill-opacity="1" fill-rule="nonzero"/></g><g clip-path="url(#de10cae824)"><path fill="#000000" d="M 98.316406 111.199219 C 85.003906 111.199219 74.179688 100.375 74.179688 87.066406 C 74.179688 73.753906 85.003906 62.929688 98.316406 62.929688 C 111.625 62.929688 122.449219 73.753906 122.449219 87.066406 C 122.449219 100.375 111.625 111.199219 98.316406 111.199219 Z M 98.316406 61.207031 C 84.054688 61.207031 72.457031 72.804688 72.457031 87.066406 C 72.457031 101.324219 84.054688 112.925781 98.316406 112.925781 C 112.574219 112.925781 124.175781 101.324219 124.175781 87.066406 C 124.175781 72.804688 112.574219 61.207031 98.316406 61.207031 " fill-opacity="1" fill-rule="nonzero"/></g><path fill="#000000" d="M 100.960938 107.578125 L 101.710938 94.027344 C 103.980469 92.917969 105.625 90.734375 105.988281 88.144531 L 118.644531 83.238281 C 118.875 84.484375 119.003906 85.757812 119.003906 87.066406 C 119.003906 97.578125 111.121094 106.273438 100.960938 107.578125 Z M 97.40625 107.730469 L 96.679688 94.644531 C 97.207031 94.757812 97.753906 94.824219 98.316406 94.824219 C 98.878906 94.824219 99.421875 94.757812 99.953125 94.644531 L 99.222656 107.730469 C 98.925781 107.742188 98.621094 107.753906 98.316406 107.753906 C 98.007812 107.753906 97.707031 107.742188 97.40625 107.730469 Z M 77.628906 87.066406 C 77.628906 85.757812 77.753906 84.484375 77.988281 83.238281 L 90.640625 88.144531 C 91.003906 90.734375 92.648438 92.917969 94.917969 94.027344 L 95.667969 107.578125 C 85.511719 106.273438 77.628906 97.578125 77.628906 87.066406 Z M 90.597656 86.277344 L 78.382812 81.542969 C 78.542969 80.957031 78.730469 80.378906 78.941406 79.816406 L 91.617188 83.167969 C 91.074219 84.097656 90.710938 85.152344 90.597656 86.277344 Z M 98.316406 93.097656 C 94.988281 93.097656 92.28125 90.390625 92.28125 87.066406 C 92.28125 83.738281 94.988281 81.03125 98.316406 81.03125 C 101.640625 81.03125 104.347656 83.738281 104.347656 87.066406 C 104.347656 90.390625 101.640625 93.097656 98.316406 93.097656 Z M 106.03125 86.277344 C 105.917969 85.152344 105.558594 84.097656 105.011719 83.167969 L 117.6875 79.816406 C 117.898438 80.378906 118.085938 80.957031 118.25 81.542969 Z M 98.316406 66.378906 C 106.554688 66.378906 113.683594 71.222656 117.007812 78.210938 L 103.886719 81.679688 C 102.476562 80.21875 100.5 79.308594 98.316406 79.308594 C 96.128906 79.308594 94.152344 80.21875 92.742188 81.679688 L 79.625 78.210938 C 82.949219 71.222656 90.074219 66.378906 98.316406 66.378906 Z M 98.316406 64.652344 C 85.957031 64.652344 75.902344 74.707031 75.902344 87.066406 C 75.902344 99.421875 85.957031 109.476562 98.316406 109.476562 C 110.671875 109.476562 120.726562 99.421875 120.726562 87.066406 C 120.726562 74.707031 110.671875 64.652344 98.316406 64.652344 " fill-opacity="1" fill-rule="nonzero"/><path fill="#000000" d="M 98.316406 89.652344 C 96.886719 89.652344 95.730469 88.492188 95.730469 87.066406 C 95.730469 85.636719 96.886719 84.480469 98.316406 84.480469 C 99.742188 84.480469 100.902344 85.636719 100.902344 87.066406 C 100.902344 88.492188 99.742188 89.652344 98.316406 89.652344 Z M 98.316406 82.753906 C 95.9375 82.753906 94.003906 84.6875 94.003906 87.066406 C 94.003906 89.441406 95.9375 91.375 98.316406 91.375 C 100.691406 91.375 102.625 89.441406 102.625 87.066406 C 102.625 84.6875 100.691406 82.753906 98.316406 82.753906 " fill-opacity="1" fill-rule="nonzero"/></svg>